<?xml version='1.0' encoding='utf-8'?>
<svg viewBox="498 531 2371 892" fill="none" xmlns="http://www.w3.org/2000/svg">
  <path d="M1375.79 1038.63V587.849H1444.26V979.855H1636.56V1038.63H1375.79Z" fill="#005EA1" />
  <path d="M2054.97 1038.63H1972.23L1744.56 674.581H1742.28C1742.85 685.422 1743.99 697.975 1744.56 711.099C1745.13 724.794 1745.7 738.488 1746.27 753.324C1746.84 768.16 1747.41 782.996 1747.41 798.973V1038.63H1685.79V587.848H1767.96L1995.06 950.183H1996.77C1996.2 941.624 1996.2 930.212 1995.63 916.517C1995.06 902.823 1994.49 888.558 1993.92 873.151C1993.35 857.745 1992.77 843.48 1992.2 829.785V587.278H2055.54V1038.63H2054.97Z" fill="#005EA1" />
  <path d="M2318.58 640.344C2296.33 640.344 2276.36 644.339 2258.67 651.757C2240.98 659.745 2226.15 671.157 2213.59 685.993C2201.04 701.399 2191.91 719.659 2185.06 740.771C2178.79 762.454 2175.36 786.42 2175.36 813.238C2175.36 848.616 2180.5 879.428 2191.34 905.106C2201.61 930.783 2217.59 950.754 2238.7 965.019C2259.81 978.714 2286.06 986.132 2318.01 986.132C2337.41 986.132 2356.25 984.42 2373.93 980.996C2391.62 977.573 2409.88 972.437 2428.71 966.731V1025.5C2411.02 1032.35 2392.76 1036.92 2374.5 1040.34C2356.24 1043.76 2334.56 1044.9 2310.03 1044.9C2264.38 1044.9 2226.15 1035.2 2195.33 1016.37C2165.09 997.544 2142.27 970.725 2126.86 935.348C2111.45 900.541 2104.04 859.457 2104.04 812.667C2104.04 778.431 2108.6 747.618 2118.3 719.088C2128 690.558 2141.7 666.022 2159.39 645.48C2177.65 624.938 2199.9 608.961 2226.72 597.549C2253.54 586.137 2284.35 581.001 2319.16 581.001C2341.98 581.001 2364.23 583.284 2385.92 588.419C2407.6 592.984 2427.57 599.831 2445.26 608.961L2420.15 666.022C2405.32 659.174 2389.34 653.468 2372.22 647.762C2355.67 642.627 2337.41 640.344 2318.58 640.344Z" fill="#005EA1" />
  <path d="M2692.33 640.344C2670.08 640.344 2650.11 644.339 2632.42 651.757C2614.73 659.745 2599.89 671.157 2587.34 685.993C2574.79 701.399 2565.66 719.659 2558.81 740.771C2552.53 762.454 2549.11 786.42 2549.11 813.238C2549.11 848.616 2554.24 879.428 2565.09 905.106C2575.36 930.783 2591.33 950.754 2612.45 965.019C2633.56 978.714 2659.81 986.132 2691.76 986.132C2711.16 986.132 2729.99 984.42 2747.68 980.996C2765.37 977.573 2783.63 972.437 2802.46 966.731V1025.5C2784.77 1032.35 2766.51 1036.92 2748.25 1040.34C2729.99 1043.76 2708.31 1044.9 2683.77 1044.9C2638.12 1044.9 2599.89 1035.2 2569.08 1016.37C2538.84 997.544 2516.01 970.725 2500.61 935.348C2485.2 900.541 2477.78 859.457 2477.78 812.667C2477.78 778.431 2482.35 747.618 2492.05 719.088C2501.75 690.558 2515.44 666.022 2533.13 645.48C2551.39 624.938 2573.65 608.961 2600.46 597.549C2627.28 586.137 2658.09 581.001 2692.9 581.001C2715.73 581.001 2737.98 583.284 2759.66 588.419C2781.35 592.984 2801.32 599.831 2819.01 608.961L2793.9 666.022C2779.06 659.174 2763.09 653.468 2745.97 647.762C2728.85 643.197 2711.16 640.344 2692.33 640.344Z" fill="#005EA1" />
  <path d="M1374.24 1184.7V1088.27H1391.35V1170.44H1431.87V1185.27H1374.24V1184.7Z" fill="#005EA1" />
  <path d="M1477.52 1109.95C1487.22 1109.95 1494.07 1112.24 1499.2 1116.23C1504.34 1120.23 1506.62 1126.5 1506.62 1135.63V1184.7H1494.64L1491.21 1174.43H1490.64C1488.36 1177.29 1486.65 1179 1484.37 1181.28C1482.08 1182.99 1479.8 1184.13 1476.95 1185.27C1474.1 1186.42 1470.67 1186.42 1466.68 1186.42C1462.11 1186.42 1458.69 1185.84 1454.7 1184.13C1451.27 1182.42 1448.42 1180.14 1446.71 1176.71C1444.99 1173.29 1443.85 1169.3 1443.85 1164.16C1443.85 1156.74 1446.71 1151.04 1452.41 1147.04C1458.12 1143.05 1466.11 1141.34 1477.52 1140.77L1490.07 1140.2V1136.77C1490.07 1132.21 1488.93 1128.78 1486.65 1126.5C1484.37 1124.79 1481.51 1123.65 1476.95 1123.65C1473.53 1123.65 1469.53 1124.22 1466.11 1125.36C1462.68 1126.5 1459.26 1127.64 1455.84 1129.35L1450.7 1117.37C1454.12 1115.66 1458.69 1113.95 1463.25 1112.81C1467.82 1110.52 1472.38 1109.95 1477.52 1109.95ZM1480.94 1149.9C1473.53 1149.9 1468.39 1151.61 1465.54 1153.89C1462.68 1156.17 1460.97 1159.03 1460.97 1163.02C1460.97 1166.44 1462.11 1168.73 1463.82 1170.44C1466.11 1172.15 1468.39 1172.72 1471.81 1172.72C1476.95 1172.72 1480.94 1171.58 1484.37 1168.73C1487.79 1165.87 1489.5 1161.88 1489.5 1156.17V1149.9H1480.94Z" fill="#005EA1" />
  <path d="M1535.15 1105.96C1535.15 1108.81 1535.15 1111.66 1535.15 1114.52C1535.15 1117.37 1534.58 1119.08 1534.58 1120.79H1535.15C1536.86 1117.94 1539.71 1115.09 1543.14 1112.81C1546.56 1110.52 1551.12 1109.38 1556.26 1109.38C1564.82 1109.38 1571.67 1112.81 1576.8 1119.08C1581.94 1125.36 1584.79 1135.06 1584.79 1147.61C1584.79 1156.17 1583.65 1163.02 1581.37 1168.72C1579.08 1174.43 1575.66 1178.42 1571.1 1181.28C1566.53 1184.13 1561.4 1185.27 1555.69 1185.27C1549.98 1185.27 1545.99 1184.13 1542.57 1182.42C1539.14 1180.71 1536.86 1177.85 1534.58 1175.57H1533.44L1530.58 1184.13H1518.03V1081.42H1535.15V1105.96ZM1551.7 1123.65C1547.7 1123.65 1544.28 1124.22 1541.99 1125.93C1539.71 1127.64 1538 1129.92 1536.86 1133.35C1535.72 1136.77 1535.15 1140.76 1535.15 1145.9V1147.61C1535.15 1155.6 1536.29 1161.31 1538.57 1165.87C1540.85 1169.87 1545.42 1172.15 1551.7 1172.15C1556.83 1172.15 1560.82 1169.87 1563.11 1165.87C1565.96 1161.88 1567.1 1155.6 1567.1 1147.61C1567.1 1139.62 1565.96 1133.92 1563.11 1129.92C1560.82 1125.36 1556.83 1123.65 1551.7 1123.65Z" fill="#005EA1" />
  <path d="M1664.67 1147.61C1664.67 1153.89 1664.1 1159.03 1662.39 1163.59C1660.68 1168.16 1658.4 1172.15 1655.54 1175.57C1652.69 1179 1648.7 1181.28 1644.7 1182.99C1640.14 1184.7 1635.57 1185.27 1629.87 1185.27C1624.73 1185.27 1620.17 1184.7 1616.17 1182.99C1612.18 1181.28 1608.18 1179 1605.33 1175.57C1602.48 1172.15 1599.63 1168.16 1597.91 1163.59C1596.2 1159.03 1595.06 1153.32 1595.06 1147.61C1595.06 1139.63 1596.2 1132.78 1599.05 1127.07C1601.91 1121.37 1605.9 1117.37 1611.04 1113.95C1616.17 1111.1 1622.45 1109.38 1629.87 1109.38C1636.71 1109.38 1642.99 1111.1 1648.13 1113.95C1653.26 1116.8 1657.26 1121.37 1660.11 1127.07C1663.53 1132.78 1664.67 1139.63 1664.67 1147.61ZM1612.18 1147.61C1612.18 1152.75 1612.75 1157.31 1613.89 1160.74C1615.03 1164.16 1616.74 1167.01 1619.6 1169.3C1622.45 1171.01 1625.3 1172.15 1629.3 1172.15C1633.29 1172.15 1636.71 1171.01 1639.57 1169.3C1642.42 1167.59 1644.13 1164.73 1645.27 1160.74C1646.42 1157.31 1646.99 1152.75 1646.99 1147.61C1646.99 1142.48 1646.42 1137.91 1645.27 1134.49C1644.13 1131.07 1642.42 1128.21 1639.57 1126.5C1636.71 1124.79 1633.86 1123.65 1629.87 1123.65C1623.59 1123.65 1619.03 1125.93 1616.74 1129.93C1613.89 1133.92 1612.18 1140.2 1612.18 1147.61Z" fill="#005EA1" />
  <path d="M1713.18 1109.95C1714.32 1109.95 1715.46 1109.95 1717.17 1109.95C1718.88 1109.95 1720.02 1109.95 1720.59 1110.52L1718.88 1126.5C1718.31 1126.5 1717.17 1125.93 1715.46 1125.93C1714.32 1125.93 1713.18 1125.93 1712.04 1125.93C1709.18 1125.93 1706.9 1126.5 1704.05 1127.07C1701.76 1128.21 1699.48 1129.35 1697.2 1131.07C1695.49 1132.78 1693.78 1135.06 1692.63 1137.34C1691.49 1140.2 1690.92 1143.05 1690.92 1146.47V1184.7H1673.8V1111.1H1686.93L1689.21 1123.65H1689.78C1691.49 1120.8 1693.21 1118.51 1694.92 1116.8C1697.2 1114.52 1699.48 1112.81 1702.33 1111.67C1706.9 1110.52 1709.75 1109.95 1713.18 1109.95Z" fill="#005EA1" />
  <path d="M1758.83 1109.95C1768.53 1109.95 1775.38 1112.24 1780.51 1116.23C1785.65 1120.23 1787.93 1126.5 1787.93 1135.63V1184.7H1775.95L1772.52 1174.43H1771.95C1769.67 1177.29 1767.96 1179 1765.68 1181.28C1763.39 1182.99 1761.11 1184.13 1758.26 1185.27C1755.4 1185.84 1751.98 1186.42 1747.99 1186.42C1743.42 1186.42 1740 1185.84 1736 1184.13C1732.58 1182.42 1729.73 1180.14 1728.02 1176.71C1726.3 1173.29 1725.16 1169.3 1725.16 1164.16C1725.16 1156.74 1728.02 1151.04 1733.72 1147.04C1739.43 1143.05 1747.42 1141.34 1758.83 1140.77L1771.38 1140.2V1136.77C1771.38 1132.21 1770.24 1128.78 1767.96 1126.5C1765.68 1124.79 1762.82 1123.65 1758.26 1123.65C1754.83 1123.65 1750.84 1124.22 1747.42 1125.36C1743.99 1126.5 1740.57 1127.64 1737.14 1129.35L1732.01 1117.37C1735.43 1115.66 1740 1113.95 1744.56 1112.81C1749.13 1110.52 1753.69 1109.95 1758.83 1109.95ZM1762.25 1149.9C1754.83 1149.9 1749.7 1151.61 1746.85 1153.89C1743.99 1156.17 1742.28 1159.03 1742.28 1163.02C1742.28 1166.44 1743.42 1168.73 1745.13 1170.44C1747.42 1172.15 1749.7 1172.72 1753.12 1172.72C1758.26 1172.72 1762.25 1171.58 1765.68 1168.73C1769.1 1165.87 1770.81 1161.88 1770.81 1156.17V1149.9H1762.25Z" fill="#005EA1" />
  <path d="M1833 1172.15C1835.29 1172.15 1837 1172.15 1839.28 1171.58C1840.99 1171.01 1843.27 1170.44 1844.99 1170.44V1182.99C1843.27 1183.56 1840.99 1184.7 1838.14 1185.27C1835.29 1185.85 1832.43 1186.42 1829.01 1186.42C1825.01 1186.42 1821.02 1185.85 1817.6 1184.13C1814.17 1182.42 1811.32 1180.14 1809.61 1176.72C1807.33 1173.29 1806.76 1168.73 1806.76 1162.45V1124.22H1796.48V1116.8L1807.33 1111.1L1812.46 1095.69H1823.3V1111.67H1844.42V1124.79H1823.3V1163.02C1823.3 1166.44 1824.44 1168.73 1826.16 1170.44C1827.87 1171.58 1830.15 1172.15 1833 1172.15Z" fill="#005EA1" />
  <path d="M1923.16 1147.61C1923.16 1153.89 1922.59 1159.03 1920.88 1163.59C1919.17 1168.16 1916.89 1172.15 1914.03 1175.57C1911.18 1179 1907.19 1181.28 1903.19 1182.99C1898.63 1184.7 1894.06 1185.27 1888.36 1185.27C1883.22 1185.27 1878.66 1184.7 1874.66 1182.99C1870.67 1181.28 1866.67 1179 1863.82 1175.57C1860.97 1172.15 1858.11 1168.16 1856.4 1163.59C1854.69 1159.03 1853.55 1153.32 1853.55 1147.61C1853.55 1139.63 1854.69 1132.78 1857.54 1127.07C1860.4 1121.37 1864.39 1117.37 1869.53 1113.95C1874.66 1111.1 1880.94 1109.38 1888.36 1109.38C1895.2 1109.38 1901.48 1111.1 1906.62 1113.95C1911.75 1116.8 1915.74 1121.37 1918.6 1127.07C1921.45 1132.78 1923.16 1139.63 1923.16 1147.61ZM1870.67 1147.61C1870.67 1152.75 1871.24 1157.32 1872.38 1160.74C1873.52 1164.16 1875.23 1167.02 1878.08 1169.3C1880.94 1171.01 1883.79 1172.15 1887.79 1172.15C1891.78 1172.15 1895.2 1171.01 1898.06 1169.3C1900.91 1167.59 1902.62 1164.73 1903.76 1160.74C1904.9 1157.32 1905.47 1152.75 1905.47 1147.61C1905.47 1142.48 1904.9 1137.91 1903.76 1134.49C1902.62 1131.07 1900.91 1128.21 1898.06 1126.5C1895.2 1124.79 1892.35 1123.65 1888.36 1123.65C1882.08 1123.65 1877.51 1125.93 1875.23 1129.93C1871.81 1133.92 1870.67 1140.2 1870.67 1147.61ZM1913.46 1082C1912.32 1083.14 1911.18 1084.85 1908.9 1086.56C1907.19 1088.27 1904.9 1089.98 1902.62 1092.27C1900.34 1093.98 1898.06 1096.26 1896.34 1097.97C1894.06 1099.68 1892.35 1101.4 1890.64 1102.54H1879.23V1100.83C1880.94 1099.11 1882.08 1096.83 1884.36 1094.55C1886.07 1092.27 1887.79 1089.98 1889.5 1087.13C1891.21 1084.85 1892.92 1082.57 1893.49 1080.28H1912.89V1082H1913.46Z" fill="#005EA1" />
  <path d="M1970.52 1109.95C1971.66 1109.95 1972.8 1109.95 1974.51 1109.95C1976.23 1109.95 1977.37 1109.95 1977.94 1110.52L1976.23 1126.5C1975.66 1126.5 1974.51 1125.93 1972.8 1125.93C1971.66 1125.93 1970.52 1125.93 1969.38 1125.93C1966.53 1125.93 1964.24 1126.5 1961.39 1127.07C1959.11 1128.21 1956.83 1129.35 1954.54 1131.07C1952.83 1132.78 1951.12 1135.06 1949.98 1137.34C1948.84 1140.2 1948.27 1143.05 1948.27 1146.47V1184.7H1931.15V1111.1H1944.27L1946.55 1123.65H1947.13C1948.84 1120.8 1950.55 1118.51 1952.26 1116.8C1954.54 1114.52 1956.83 1112.81 1959.68 1111.67C1964.24 1110.52 1967.1 1109.95 1970.52 1109.95Z" fill="#005EA1" />
  <path d="M1996.2 1083.14C1998.48 1083.14 2000.76 1083.71 2003.04 1084.85C2004.76 1085.99 2005.9 1088.27 2005.9 1091.7C2005.9 1095.12 2004.76 1097.4 2003.04 1098.54C2001.33 1099.68 1999.05 1100.83 1996.2 1100.83C1993.34 1100.83 1991.06 1100.25 1989.35 1098.54C1987.64 1097.4 1986.5 1094.55 1986.5 1091.7C1986.5 1088.27 1987.64 1085.99 1989.35 1084.85C1991.63 1083.71 1993.91 1083.14 1996.2 1083.14ZM2004.76 1111.1V1184.7H1987.64V1111.1H2004.76Z" fill="#005EA1" />
  <path d="M2086.92 1147.61C2086.92 1153.89 2086.35 1159.03 2084.64 1163.59C2082.93 1168.16 2080.65 1172.15 2077.79 1175.57C2074.94 1179 2070.95 1181.28 2066.95 1182.99C2062.39 1184.7 2057.82 1185.27 2052.12 1185.27C2046.98 1185.27 2042.42 1184.7 2038.42 1182.99C2034.43 1181.28 2030.43 1179 2027.58 1175.57C2024.73 1172.15 2021.87 1168.16 2020.16 1163.59C2018.45 1159.03 2017.31 1153.32 2017.31 1147.61C2017.31 1139.63 2018.45 1132.78 2021.3 1127.07C2024.16 1121.37 2028.15 1117.37 2033.29 1113.95C2038.42 1111.1 2044.7 1109.38 2052.12 1109.38C2058.96 1109.38 2065.24 1111.1 2070.37 1113.95C2075.51 1116.8 2079.5 1121.37 2082.36 1127.07C2085.21 1132.78 2086.92 1139.63 2086.92 1147.61ZM2034.43 1147.61C2034.43 1152.75 2035 1157.31 2036.14 1160.74C2037.28 1164.16 2038.99 1167.01 2041.84 1169.3C2044.7 1171.01 2047.55 1172.15 2051.54 1172.15C2055.54 1172.15 2058.96 1171.01 2061.82 1169.3C2064.67 1167.59 2066.38 1164.73 2067.52 1160.74C2068.66 1157.31 2069.23 1152.75 2069.23 1147.61C2069.23 1142.48 2068.66 1137.91 2067.52 1134.49C2066.38 1131.07 2064.67 1128.21 2061.82 1126.5C2058.96 1124.79 2056.11 1123.65 2052.12 1123.65C2045.84 1123.65 2041.27 1125.93 2038.99 1129.93C2035.57 1133.92 2034.43 1140.2 2034.43 1147.61Z" fill="#005EA1" />
  <path d="M2207.33 1184.7H2185.64L2139.99 1108.81H2139.42C2139.42 1111.67 2139.99 1114.52 2139.99 1117.37C2139.99 1120.22 2139.99 1123.65 2140.56 1126.5C2140.56 1129.35 2140.56 1132.78 2141.13 1135.63V1184.13H2125.73V1087.7H2147.41L2193.06 1163.02H2193.63C2193.63 1160.74 2193.63 1157.88 2193.63 1155.03C2193.63 1152.18 2193.63 1148.76 2193.06 1145.9C2193.06 1143.05 2193.06 1139.63 2192.49 1136.77V1087.7H2208.47V1184.7H2207.33Z" fill="#005EA1" />
  <path d="M2250.11 1109.95C2259.82 1109.95 2266.66 1112.24 2271.8 1116.23C2276.93 1120.23 2279.22 1126.5 2279.22 1135.63V1184.7H2267.23L2263.81 1174.43H2263.24C2260.96 1177.29 2259.24 1179 2256.96 1181.28C2254.68 1182.99 2252.4 1184.13 2249.54 1185.27C2246.69 1185.84 2243.27 1186.42 2239.27 1186.42C2234.71 1186.42 2231.28 1185.84 2227.29 1184.13C2223.87 1182.42 2221.01 1180.14 2219.3 1176.71C2217.59 1173.29 2216.45 1169.3 2216.45 1164.16C2216.45 1156.74 2219.3 1151.04 2225.01 1147.04C2230.71 1143.05 2238.7 1141.34 2250.11 1140.77L2262.67 1140.2V1136.77C2262.67 1132.21 2261.53 1128.78 2259.24 1126.5C2256.96 1124.79 2254.11 1123.65 2249.54 1123.65C2246.12 1123.65 2242.13 1124.22 2238.7 1125.36C2235.28 1126.5 2231.86 1127.64 2228.43 1129.35L2223.3 1117.37C2226.72 1115.66 2231.28 1113.95 2235.85 1112.81C2240.41 1110.52 2244.98 1109.95 2250.11 1109.95ZM2253.54 1149.9C2246.12 1149.9 2240.99 1151.61 2238.13 1153.89C2235.28 1156.17 2233.57 1159.03 2233.57 1163.02C2233.57 1166.44 2234.71 1168.73 2236.42 1170.44C2238.7 1172.15 2240.99 1172.72 2244.41 1172.72C2249.54 1172.72 2253.54 1171.58 2256.96 1168.73C2260.39 1165.87 2262.1 1161.88 2262.1 1156.17V1149.9H2253.54Z" fill="#005EA1" />
  <path d="M2321.44 1185.84C2314.59 1185.84 2308.32 1184.7 2303.18 1181.85C2298.04 1179 2294.05 1175 2291.2 1169.3C2288.34 1163.59 2287.2 1156.74 2287.2 1148.18C2287.2 1139.05 2288.91 1131.64 2291.77 1125.93C2294.62 1120.22 2299.19 1116.23 2304.32 1113.38C2309.46 1110.52 2315.73 1109.38 2322.58 1109.38C2327.15 1109.38 2331.14 1109.95 2335.13 1110.52C2338.56 1111.67 2341.98 1112.24 2344.26 1113.95L2339.13 1127.07C2336.28 1125.93 2333.42 1124.79 2330.57 1124.22C2327.72 1123.65 2324.86 1123.08 2322.58 1123.08C2318.59 1123.08 2315.16 1124.22 2312.31 1125.93C2309.46 1127.64 2307.74 1130.5 2306.6 1133.92C2305.46 1137.34 2304.89 1141.91 2304.89 1147.61C2304.89 1152.75 2305.46 1157.31 2306.6 1160.74C2307.74 1164.16 2310.03 1167.01 2312.31 1168.73C2315.16 1170.44 2318.02 1171.58 2322.01 1171.58C2326 1171.58 2330 1171.01 2332.85 1169.87C2336.28 1168.73 2339.13 1167.59 2341.98 1165.87V1180.71C2339.13 1182.42 2336.28 1183.56 2332.85 1184.7C2330.57 1185.27 2326.57 1185.84 2321.44 1185.84Z" fill="#005EA1" />
  <path d="M2359.67 1083.14C2361.96 1083.14 2364.24 1083.71 2366.52 1084.85C2368.23 1085.99 2369.38 1088.27 2369.38 1091.7C2369.38 1095.12 2368.23 1097.4 2366.52 1098.54C2364.81 1099.68 2362.53 1100.83 2359.67 1100.83C2356.82 1100.83 2354.54 1100.25 2352.83 1098.54C2351.12 1097.4 2349.97 1094.55 2349.97 1091.7C2349.97 1088.27 2351.12 1085.99 2352.83 1084.85C2355.11 1083.71 2356.82 1083.14 2359.67 1083.14ZM2368.23 1111.1V1184.7H2351.12V1111.1H2368.23Z" fill="#005EA1" />
  <path d="M2446.98 1147.61C2446.98 1153.89 2446.41 1159.03 2444.69 1163.59C2442.98 1168.16 2440.7 1172.15 2437.85 1175.57C2434.99 1179 2431 1181.28 2427.01 1182.99C2422.44 1184.7 2417.88 1185.27 2412.17 1185.27C2407.03 1185.27 2402.47 1184.7 2398.48 1182.99C2394.48 1181.28 2390.49 1179 2387.63 1175.57C2384.78 1172.15 2381.93 1168.16 2380.22 1163.59C2378.5 1159.03 2377.36 1153.32 2377.36 1147.61C2377.36 1139.63 2378.5 1132.78 2381.36 1127.07C2384.21 1121.37 2388.2 1117.37 2393.34 1113.95C2398.48 1111.1 2404.75 1109.38 2412.17 1109.38C2419.02 1109.38 2425.29 1111.1 2430.43 1113.95C2435.57 1116.8 2439.56 1121.37 2442.41 1127.07C2445.27 1132.78 2446.98 1139.63 2446.98 1147.61ZM2394.48 1147.61C2394.48 1152.75 2395.05 1157.31 2396.19 1160.74C2397.33 1164.16 2399.05 1167.01 2401.9 1169.3C2404.75 1171.01 2407.61 1172.15 2411.6 1172.15C2415.59 1172.15 2419.02 1171.01 2421.87 1169.3C2424.72 1167.59 2426.44 1164.73 2427.58 1160.74C2428.72 1157.31 2429.29 1152.75 2429.29 1147.61C2429.29 1142.48 2428.72 1137.91 2427.58 1134.49C2426.44 1131.07 2424.72 1128.21 2421.87 1126.5C2419.02 1124.79 2416.16 1123.65 2412.17 1123.65C2405.89 1123.65 2401.33 1125.93 2399.05 1129.93C2395.62 1133.92 2394.48 1140.2 2394.48 1147.61Z" fill="#005EA1" />
  <path d="M2494.91 1109.95C2502.89 1109.95 2509.74 1112.24 2514.31 1116.23C2518.87 1120.23 2521.15 1127.07 2521.15 1136.77V1184.7H2504.04V1140.2C2504.04 1134.49 2502.89 1130.5 2500.61 1127.64C2498.33 1124.79 2494.91 1123.65 2490.34 1123.65C2483.49 1123.65 2478.93 1125.93 2476.08 1129.93C2473.79 1134.49 2472.08 1140.2 2472.08 1148.76V1184.7H2454.96V1111.1H2468.09L2470.37 1120.8H2471.51C2473.22 1118.51 2474.93 1116.23 2477.22 1114.52C2479.5 1112.81 2482.35 1111.67 2485.21 1111.1C2489.2 1109.95 2492.05 1109.95 2494.91 1109.95Z" fill="#005EA1" />
  <path d="M2563.38 1109.95C2573.08 1109.95 2579.93 1112.24 2585.07 1116.23C2590.2 1120.23 2592.48 1126.5 2592.48 1135.63V1184.7H2580.5L2577.08 1174.43H2576.51C2574.22 1177.29 2572.51 1179 2570.23 1181.28C2567.95 1182.99 2565.66 1184.13 2562.81 1185.27C2559.96 1185.84 2556.54 1186.42 2552.54 1186.42C2547.98 1186.42 2544.55 1185.84 2540.56 1184.13C2537.13 1182.42 2534.28 1180.14 2532.57 1176.71C2530.86 1173.29 2529.72 1169.3 2529.72 1164.16C2529.72 1156.74 2532.57 1151.04 2538.28 1147.04C2543.98 1143.05 2551.97 1141.34 2563.38 1140.77L2575.94 1140.2V1136.77C2575.94 1132.21 2574.79 1128.78 2572.51 1126.5C2570.23 1124.79 2567.38 1123.65 2562.81 1123.65C2559.39 1123.65 2555.39 1124.22 2551.97 1125.36C2548.55 1126.5 2545.12 1127.64 2541.7 1129.35L2536.56 1117.37C2539.99 1115.66 2544.55 1113.95 2549.12 1112.81C2553.68 1110.52 2558.25 1109.95 2563.38 1109.95ZM2566.81 1149.9C2559.39 1149.9 2554.25 1151.61 2551.4 1153.89C2548.55 1156.17 2546.83 1159.03 2546.83 1163.02C2546.83 1166.44 2547.98 1168.73 2549.69 1170.44C2551.97 1172.15 2554.25 1172.72 2557.68 1172.72C2562.81 1172.72 2566.81 1171.58 2570.23 1168.73C2573.65 1165.87 2575.37 1161.88 2575.37 1156.17V1149.9H2566.81Z" fill="#005EA1" />
  <path d="M2622.16 1184.7H2605.04V1081.99H2622.16V1184.7Z" fill="#005EA1" />
  <path d="M2688.34 1185.84C2679.78 1185.84 2672.93 1182.42 2667.8 1176.14C2662.66 1169.87 2659.81 1160.17 2659.81 1147.61C2659.81 1135.06 2662.66 1125.36 2667.8 1119.08C2672.93 1112.8 2680.35 1109.38 2688.91 1109.38C2692.34 1109.38 2695.76 1109.95 2698.61 1110.52C2701.46 1111.66 2703.75 1112.8 2705.46 1114.52C2707.17 1116.23 2708.88 1117.94 2710.59 1119.65H2711.17C2711.17 1118.51 2710.59 1116.23 2710.59 1113.95C2710.59 1111.09 2710.02 1108.81 2710.02 1106.53V1080.85H2727.14V1183.56H2714.02L2711.17 1173.86H2710.59C2709.45 1175.57 2707.74 1177.85 2705.46 1179.57C2703.75 1181.28 2700.89 1182.42 2698.61 1183.56C2695.19 1185.27 2691.76 1185.84 2688.34 1185.84ZM2693.48 1172.15C2699.75 1172.15 2704.32 1170.44 2706.6 1167.01C2709.45 1163.59 2710.59 1157.88 2710.59 1150.46V1148.18C2710.59 1140.19 2709.45 1133.92 2706.6 1129.92C2704.32 1125.93 2699.75 1123.65 2692.91 1123.65C2687.77 1123.65 2683.78 1125.93 2680.92 1129.92C2678.07 1134.49 2676.93 1140.19 2676.93 1148.18C2676.93 1156.17 2678.07 1161.88 2680.92 1165.87C2683.78 1169.87 2688.34 1172.15 2693.48 1172.15Z" fill="#005EA1" />
  <path d="M2773.36 1109.95C2780.21 1109.95 2785.34 1111.1 2790.48 1113.95C2795.04 1116.8 2799.04 1120.22 2801.32 1125.36C2804.17 1130.5 2805.31 1136.2 2805.31 1143.05V1151.61H2756.81C2756.81 1158.46 2759.1 1163.59 2762.52 1167.01C2765.94 1170.44 2771.08 1172.72 2777.36 1172.72C2781.92 1172.72 2786.49 1172.15 2789.91 1171.58C2793.9 1170.44 2797.33 1169.3 2801.32 1167.59V1181.28C2797.9 1182.99 2793.9 1184.13 2789.91 1185.27C2785.91 1185.84 2781.35 1186.42 2776.21 1186.42C2768.8 1186.42 2762.52 1185.27 2757.38 1182.42C2751.68 1179.57 2747.68 1175.57 2744.26 1169.87C2741.41 1164.16 2739.7 1157.31 2739.7 1148.76C2739.7 1140.2 2740.84 1133.35 2743.69 1127.64C2746.54 1121.94 2750.54 1117.37 2755.67 1114.52C2760.24 1111.1 2766.51 1109.95 2773.36 1109.95ZM2773.36 1122.51C2768.8 1122.51 2765.37 1124.22 2762.52 1127.07C2759.67 1129.93 2757.95 1134.49 2757.38 1140.2H2788.77C2788.77 1136.77 2788.2 1133.92 2787.06 1131.07C2785.91 1128.21 2784.2 1126.5 2781.92 1124.79C2779.64 1123.08 2776.78 1122.51 2773.36 1122.51Z" fill="#005EA1" />
  <path d="M1417.61 1255.46C1413.04 1255.46 1409.05 1256.03 1405.62 1257.74C1402.2 1259.45 1399.35 1261.73 1397.07 1264.59C1394.78 1267.44 1393.07 1271.43 1391.93 1275.43C1390.79 1279.99 1390.22 1284.56 1390.22 1290.26C1390.22 1297.68 1391.36 1303.96 1393.07 1309.09C1394.78 1314.23 1398.21 1318.22 1402.2 1321.08C1406.2 1323.93 1411.33 1325.07 1417.61 1325.07C1421.6 1325.07 1425.6 1324.5 1429.59 1323.93C1433.58 1322.79 1437.58 1321.65 1441.57 1320.51V1335.34C1437.58 1337.05 1433.58 1338.2 1429.59 1338.77C1425.6 1339.34 1421.03 1339.91 1415.9 1339.91C1406.2 1339.91 1397.64 1337.63 1391.36 1333.63C1385.08 1329.64 1379.95 1323.93 1377.09 1316.51C1373.67 1309.09 1372.53 1300.54 1372.53 1290.26C1372.53 1282.85 1373.67 1276 1375.38 1270.29C1377.66 1264.02 1380.52 1258.88 1383.94 1254.32C1387.94 1249.75 1392.5 1246.33 1398.21 1244.05C1403.91 1241.76 1410.19 1240.62 1417.61 1240.62C1422.74 1240.62 1427.31 1241.19 1431.87 1242.33C1436.44 1243.48 1441 1245.19 1445 1246.9L1439.29 1261.16C1435.87 1259.45 1432.44 1258.31 1428.45 1257.17C1425.03 1256.03 1421.6 1255.46 1417.61 1255.46Z" fill="#005EA1" />
  <path d="M1523.17 1302.25C1523.17 1308.52 1522.6 1313.66 1520.88 1318.22C1519.17 1322.79 1516.89 1326.78 1514.04 1330.21C1511.18 1333.63 1507.19 1335.91 1503.2 1337.62C1498.63 1339.34 1494.07 1339.91 1488.36 1339.91C1483.22 1339.91 1478.66 1339.34 1474.67 1337.62C1470.67 1335.91 1466.68 1333.63 1463.82 1330.21C1460.97 1326.78 1458.12 1322.79 1456.41 1318.22C1454.69 1313.66 1453.55 1307.95 1453.55 1302.25C1453.55 1294.26 1454.69 1287.41 1457.55 1281.7C1460.4 1276 1464.39 1272 1469.53 1268.58C1474.67 1265.73 1480.94 1264.02 1488.36 1264.02C1495.21 1264.02 1501.48 1265.73 1506.62 1268.58C1511.75 1271.43 1515.75 1276 1518.6 1281.7C1521.45 1286.84 1523.17 1293.69 1523.17 1302.25ZM1470.67 1302.25C1470.67 1307.38 1471.24 1311.95 1472.38 1315.37C1473.52 1318.79 1475.24 1321.65 1478.09 1323.93C1480.94 1325.64 1483.79 1326.78 1487.79 1326.78C1491.78 1326.78 1495.21 1325.64 1498.06 1323.93C1500.91 1322.22 1502.62 1319.36 1503.77 1315.37C1504.91 1311.95 1505.48 1307.38 1505.48 1302.25C1505.48 1297.11 1504.91 1292.55 1503.77 1289.12C1502.62 1285.7 1500.91 1282.85 1498.06 1281.13C1495.21 1279.42 1492.35 1278.28 1488.36 1278.28C1482.08 1278.28 1477.52 1280.56 1475.24 1284.56C1471.81 1288.55 1470.67 1294.26 1470.67 1302.25Z" fill="#005EA1" />
  <path d="M1620.74 1264.02C1629.3 1264.02 1635.57 1266.3 1639.57 1270.29C1643.56 1274.29 1645.84 1281.13 1645.84 1290.83V1338.77H1628.73V1294.26C1628.73 1289.12 1627.58 1284.56 1625.87 1282.27C1624.16 1279.42 1620.74 1278.28 1616.17 1278.28C1610.47 1278.28 1605.9 1279.99 1603.62 1283.99C1601.34 1287.98 1599.62 1293.69 1599.62 1301.11V1339.34H1582.51V1294.26C1582.51 1290.83 1581.94 1287.41 1581.36 1285.13C1580.22 1282.85 1579.08 1281.13 1577.37 1279.42C1575.66 1278.28 1573.38 1277.71 1570.52 1277.71C1566.53 1277.71 1563.11 1278.85 1560.82 1280.56C1558.54 1282.28 1556.83 1285.13 1555.69 1289.12C1554.55 1292.55 1553.98 1297.11 1553.98 1302.82V1338.77H1536.86V1265.73H1549.98L1552.26 1275.43H1553.4C1555.12 1273.15 1556.83 1270.86 1559.11 1269.15C1561.39 1267.44 1563.68 1266.3 1566.53 1265.73C1569.38 1265.16 1572.24 1264.59 1575.09 1264.59C1580.79 1264.59 1585.36 1265.73 1588.78 1267.44C1592.78 1269.15 1595.63 1272 1597.34 1276H1598.48C1600.77 1272 1604.19 1269.15 1608.18 1267.44C1611.61 1265.16 1616.17 1264.02 1620.74 1264.02Z" fill="#005EA1" />
  <path d="M1701.19 1264.02C1709.75 1264.02 1716.6 1267.44 1721.74 1273.72C1726.87 1279.99 1729.72 1289.69 1729.72 1302.25C1729.72 1310.81 1728.58 1317.65 1726.3 1323.36C1724.02 1329.06 1720.59 1333.06 1716.03 1336.48C1711.46 1339.34 1706.9 1341.05 1700.62 1341.05C1697.2 1341.05 1693.78 1340.48 1691.49 1339.91C1688.64 1338.77 1686.36 1337.62 1684.65 1336.48C1682.93 1334.77 1681.22 1333.63 1679.51 1331.92H1678.37C1678.94 1333.63 1678.94 1335.34 1678.94 1337.62C1678.94 1339.91 1678.94 1341.62 1678.94 1343.33V1373H1661.82V1265.73H1675.52L1677.8 1275.43H1678.37C1679.51 1273.15 1681.22 1271.43 1683.51 1269.72C1685.22 1268.01 1688.07 1266.87 1690.35 1265.73C1694.35 1264.59 1697.77 1264.02 1701.19 1264.02ZM1696.63 1277.71C1692.64 1277.71 1689.21 1278.28 1686.93 1279.99C1684.65 1281.7 1682.93 1283.99 1681.79 1287.41C1680.65 1290.83 1680.08 1294.83 1680.08 1299.39V1301.68C1680.08 1306.81 1680.65 1311.38 1681.79 1314.8C1682.93 1318.22 1684.65 1321.08 1686.93 1322.79C1689.21 1324.5 1692.64 1325.64 1697.2 1325.64C1700.62 1325.64 1704.05 1324.5 1706.33 1322.79C1708.61 1321.08 1710.32 1318.22 1711.47 1314.23C1712.61 1310.81 1713.18 1306.24 1713.18 1301.11C1713.18 1293.69 1712.04 1287.41 1709.18 1283.42C1705.76 1279.99 1701.76 1277.71 1696.63 1277.71Z" fill="#005EA1" />
  <path d="M1808.47 1265.73V1339.34H1795.35L1793.06 1329.64H1792.49C1790.78 1331.92 1789.07 1334.2 1786.79 1335.91C1784.51 1337.63 1781.65 1338.77 1778.8 1339.34C1775.95 1339.91 1773.09 1340.48 1769.67 1340.48C1764.53 1340.48 1759.4 1339.34 1755.4 1337.63C1751.41 1335.91 1748.56 1333.06 1746.27 1329.07C1743.99 1325.07 1743.42 1319.94 1743.42 1313.66V1265.73H1760.54V1310.24C1760.54 1315.37 1761.68 1319.94 1763.96 1322.22C1766.25 1325.07 1769.67 1326.21 1774.23 1326.21C1778.8 1326.21 1782.22 1325.07 1785.08 1323.36C1787.93 1321.65 1789.64 1318.8 1790.78 1314.8C1791.92 1311.38 1792.49 1306.81 1792.49 1301.11V1265.73H1808.47Z" fill="#005EA1" />
  <path d="M1857.55 1326.78C1859.83 1326.78 1861.54 1326.78 1863.82 1326.21C1865.53 1325.64 1867.82 1325.07 1869.53 1325.07V1337.63C1867.82 1338.2 1865.53 1339.34 1862.68 1339.91C1859.83 1340.48 1856.98 1341.05 1853.55 1341.05C1849.56 1341.05 1845.56 1340.48 1842.14 1338.77C1838.72 1337.63 1835.86 1334.77 1834.15 1331.35C1831.87 1327.93 1831.3 1323.36 1831.3 1317.08V1278.85H1821.6V1271.44L1832.44 1265.73L1837.57 1250.32H1848.42V1266.3H1869.53V1279.42H1848.42V1317.65C1848.42 1321.08 1849.56 1323.36 1851.27 1325.07C1851.84 1325.64 1854.12 1326.78 1857.55 1326.78Z" fill="#005EA1" />
  <path d="M1912.32 1264.02C1922.02 1264.02 1928.87 1266.3 1934 1270.29C1939.14 1274.29 1941.42 1280.56 1941.42 1289.69V1338.77H1929.44L1926.01 1328.49H1925.44C1923.16 1331.35 1921.45 1333.06 1919.17 1335.34C1916.88 1337.05 1914.6 1338.19 1911.75 1339.34C1908.9 1339.91 1905.47 1340.48 1901.48 1340.48C1896.91 1340.48 1893.49 1339.91 1889.5 1338.19C1886.07 1336.48 1883.22 1334.2 1881.51 1330.78C1879.8 1327.35 1878.65 1323.36 1878.65 1318.22C1878.65 1310.81 1881.51 1305.1 1887.21 1301.11C1892.92 1297.11 1900.91 1295.4 1912.32 1294.83L1924.87 1294.26V1290.83C1924.87 1286.27 1923.73 1282.85 1921.45 1280.56C1919.17 1278.85 1916.31 1277.71 1911.75 1277.71C1908.33 1277.71 1904.33 1278.28 1900.91 1279.42C1897.48 1280.56 1894.06 1281.7 1890.64 1283.42L1885.5 1271.43C1888.93 1269.72 1893.49 1268.01 1898.05 1266.87C1902.62 1264.59 1907.18 1264.02 1912.32 1264.02ZM1915.74 1304.53C1908.33 1304.53 1903.19 1306.24 1900.34 1308.52C1897.48 1310.81 1895.77 1313.66 1895.77 1317.65C1895.77 1321.08 1896.91 1323.36 1898.63 1325.07C1900.91 1326.78 1903.19 1327.35 1906.61 1327.35C1911.75 1327.35 1915.74 1326.21 1919.17 1323.36C1922.59 1320.51 1924.3 1316.51 1924.3 1310.81V1304.53H1915.74Z" fill="#005EA1" />
  <path d="M1984.21 1340.48C1977.37 1340.48 1971.09 1339.34 1965.95 1336.48C1960.82 1333.63 1956.82 1329.64 1953.97 1323.93C1951.12 1318.22 1949.98 1311.38 1949.98 1302.82C1949.98 1293.69 1951.69 1286.27 1954.54 1280.56C1957.39 1274.86 1961.96 1270.86 1967.09 1268.01C1972.23 1265.16 1978.51 1264.02 1985.35 1264.02C1989.92 1264.02 1993.91 1264.59 1997.91 1265.16C2001.33 1266.3 2004.75 1266.87 2007.04 1268.58L2001.9 1281.7C1999.05 1280.56 1996.2 1279.42 1993.34 1278.85C1990.49 1278.28 1987.64 1277.71 1985.35 1277.71C1981.36 1277.71 1977.94 1278.85 1975.08 1280.56C1972.23 1282.28 1970.52 1285.13 1969.38 1288.55C1968.24 1291.98 1967.67 1296.54 1967.67 1302.25C1967.67 1307.38 1968.24 1311.95 1969.38 1315.37C1970.52 1318.79 1972.8 1321.65 1975.08 1323.36C1977.94 1325.07 1980.79 1326.21 1984.78 1326.21C1988.78 1326.21 1992.77 1325.64 1995.63 1324.5C1999.05 1323.36 2001.9 1322.22 2004.75 1320.51V1335.34C2001.9 1337.05 1999.05 1338.19 1995.63 1339.34C1993.34 1339.91 1989.35 1340.48 1984.21 1340.48ZM1997.91 1356.45C1997.91 1361.02 1996.2 1365.01 1993.34 1367.87C1990.49 1370.72 1984.78 1371.86 1977.37 1371.86C1975.65 1371.86 1973.94 1371.86 1972.8 1371.29C1971.09 1371.29 1969.95 1370.72 1968.81 1370.72V1361.02C1969.95 1361.02 1971.09 1361.59 1972.8 1361.59C1974.51 1361.59 1976.22 1362.16 1977.37 1362.16C1979.08 1362.16 1980.79 1361.59 1981.93 1361.02C1983.07 1360.45 1983.64 1359.31 1983.64 1357.02C1983.64 1355.31 1982.5 1353.6 1980.79 1352.46C1979.08 1351.32 1976.22 1350.18 1972.23 1349.61L1977.37 1338.77H1988.21L1985.92 1343.9C1987.64 1344.47 1989.92 1345.04 1991.63 1346.18C1993.34 1347.32 1994.48 1348.47 1995.63 1350.18C1997.34 1351.89 1997.91 1354.17 1997.91 1356.45Z" fill="#005EA1" />
  <path d="M2049.84 1264.02C2059.54 1264.02 2066.38 1266.3 2071.52 1270.29C2076.65 1274.29 2078.94 1280.56 2078.94 1289.69V1338.77H2066.95L2063.53 1328.49H2062.96C2060.68 1331.35 2058.97 1333.06 2056.68 1335.34C2054.4 1337.05 2052.12 1338.2 2049.26 1339.34C2046.41 1339.91 2042.99 1340.48 2038.99 1340.48C2034.43 1340.48 2031.01 1339.91 2027.01 1338.2C2023.59 1336.48 2020.73 1334.2 2019.02 1330.78C2017.31 1327.35 2016.17 1323.36 2016.17 1318.22C2016.17 1310.81 2019.02 1305.1 2024.73 1301.11C2030.44 1297.11 2038.42 1295.4 2049.84 1294.83L2062.39 1294.26V1290.83C2062.39 1286.27 2061.25 1282.85 2058.97 1280.56C2056.68 1278.85 2053.83 1277.71 2049.26 1277.71C2045.84 1277.71 2041.85 1278.28 2038.42 1279.42C2035 1280.56 2031.58 1281.71 2028.15 1283.42L2023.02 1271.43C2026.44 1269.72 2031.01 1268.01 2035.57 1266.87C2039.56 1264.59 2044.7 1264.02 2049.84 1264.02ZM2023.02 1257.17C2023.02 1253.75 2024.16 1250.89 2024.73 1248.61C2025.87 1246.33 2027.01 1244.05 2028.15 1242.33C2029.86 1240.62 2031.58 1239.48 2033.29 1238.91C2035 1238.34 2037.28 1237.77 2039.56 1237.77C2041.28 1237.77 2043.56 1238.34 2045.27 1238.91C2046.98 1239.48 2048.69 1240.62 2050.41 1241.76C2052.12 1242.9 2053.83 1243.47 2055.54 1244.62C2057.25 1245.19 2058.97 1245.76 2060.11 1245.76C2061.82 1245.76 2062.96 1245.19 2064.1 1244.05C2065.24 1242.9 2066.38 1241.19 2066.95 1238.34H2075.51C2074.94 1244.62 2073.23 1249.75 2069.81 1252.6C2066.95 1256.03 2062.96 1257.74 2058.39 1257.74C2056.68 1257.74 2054.97 1257.17 2053.26 1256.6C2051.55 1256.03 2049.84 1254.89 2048.12 1253.75C2046.41 1252.6 2044.7 1252.03 2042.99 1250.89C2041.28 1250.32 2039.56 1249.75 2038.42 1249.75C2037.28 1249.75 2035.57 1250.32 2034.43 1251.46C2033.29 1252.6 2032.15 1254.32 2031.58 1257.17H2023.02ZM2052.69 1304.53C2045.27 1304.53 2040.14 1306.24 2037.28 1308.52C2034.43 1310.81 2032.72 1313.66 2032.72 1317.65C2032.72 1321.08 2033.86 1323.36 2035.57 1325.07C2037.85 1326.78 2040.14 1327.35 2043.56 1327.35C2048.69 1327.35 2052.69 1326.21 2056.11 1323.36C2059.54 1320.51 2061.25 1316.51 2061.25 1310.81V1304.53H2052.69Z" fill="#005EA1" />
  <path d="M2159.39 1302.25C2159.39 1308.52 2158.82 1313.66 2157.11 1318.22C2155.4 1322.79 2153.11 1326.78 2150.26 1330.21C2147.41 1333.63 2143.41 1335.91 2139.42 1337.62C2134.86 1339.34 2130.29 1339.91 2124.58 1339.91C2119.45 1339.91 2114.88 1339.34 2110.89 1337.62C2106.9 1335.91 2102.9 1333.63 2100.05 1330.21C2097.2 1326.78 2094.34 1322.79 2092.63 1318.22C2090.92 1313.66 2089.78 1307.95 2089.78 1302.25C2089.78 1294.26 2090.92 1287.41 2093.77 1281.7C2096.62 1276 2100.62 1272 2105.75 1268.58C2110.89 1265.73 2117.17 1264.02 2124.58 1264.02C2131.43 1264.02 2137.71 1265.73 2142.84 1268.58C2147.98 1271.43 2151.97 1276 2154.83 1281.7C2157.68 1286.84 2159.39 1293.69 2159.39 1302.25ZM2106.9 1302.25C2106.9 1307.38 2107.47 1311.95 2108.61 1315.37C2109.75 1318.79 2111.46 1321.65 2114.31 1323.93C2117.17 1325.64 2120.02 1326.78 2124.01 1326.78C2128.01 1326.78 2131.43 1325.64 2134.28 1323.93C2137.14 1322.22 2138.85 1319.36 2139.99 1315.37C2141.13 1311.95 2141.7 1307.38 2141.7 1302.25C2141.7 1297.11 2141.13 1292.55 2139.99 1289.12C2138.85 1285.7 2137.14 1282.85 2134.28 1281.13C2131.43 1279.42 2128.58 1278.28 2124.58 1278.28C2118.31 1278.28 2113.74 1280.56 2111.46 1284.56C2108.04 1288.55 2106.9 1294.26 2106.9 1302.25Z" fill="#005EA1" />
  <path d="M2248.41 1255.46C2243.84 1255.46 2239.85 1256.03 2236.42 1257.74C2233 1259.45 2230.15 1261.73 2227.86 1264.59C2225.58 1267.44 2223.87 1271.43 2222.73 1275.43C2221.59 1279.99 2221.02 1284.56 2221.02 1290.26C2221.02 1297.68 2222.16 1303.96 2223.87 1309.09C2225.58 1314.23 2229.01 1318.22 2233 1321.08C2236.99 1323.93 2242.13 1325.07 2248.41 1325.07C2252.4 1325.07 2256.39 1324.5 2260.39 1323.93C2264.38 1322.79 2268.38 1321.65 2272.37 1320.51V1335.34C2268.38 1337.05 2264.38 1338.2 2260.39 1338.77C2256.39 1339.34 2251.83 1339.91 2246.69 1339.91C2236.99 1339.91 2228.43 1337.63 2222.16 1333.63C2215.88 1329.64 2210.75 1323.93 2207.89 1316.51C2204.47 1309.09 2203.33 1300.54 2203.33 1290.26C2203.33 1282.85 2204.47 1276 2206.18 1270.29C2208.46 1264.02 2211.32 1258.88 2214.74 1254.32C2218.73 1249.75 2223.3 1246.33 2229.01 1244.05C2234.71 1241.76 2240.99 1240.62 2248.41 1240.62C2253.54 1240.62 2258.11 1241.19 2262.67 1242.33C2267.24 1243.48 2271.8 1245.19 2275.8 1246.9L2270.09 1261.16C2266.67 1259.45 2263.24 1258.31 2259.25 1257.17C2255.82 1256.03 2251.83 1255.46 2248.41 1255.46Z" fill="#005EA1" />
  <path d="M2299.76 1237.2C2302.04 1237.2 2304.32 1237.77 2306.6 1238.91C2308.32 1240.05 2309.46 1242.33 2309.46 1245.76C2309.46 1249.18 2308.32 1251.46 2306.6 1252.61C2304.89 1253.75 2302.61 1254.89 2299.76 1254.89C2296.9 1254.89 2294.62 1254.32 2292.91 1252.61C2291.2 1251.46 2290.06 1248.61 2290.06 1245.76C2290.06 1242.33 2291.2 1240.05 2292.91 1238.91C2295.19 1237.77 2296.9 1237.2 2299.76 1237.2ZM2308.32 1265.73V1339.34H2291.2V1265.73H2308.32Z" fill="#005EA1" />
  <path d="M2358.53 1264.02C2365.38 1264.02 2370.52 1265.16 2375.65 1268.01C2380.22 1270.86 2384.21 1274.29 2386.49 1279.42C2389.35 1284.56 2390.49 1290.26 2390.49 1297.11V1305.67H2341.99C2341.99 1312.52 2344.27 1317.65 2347.69 1321.08C2351.12 1324.5 2356.25 1326.78 2362.53 1326.78C2367.09 1326.78 2371.66 1326.21 2375.08 1325.64C2379.08 1324.5 2382.5 1323.36 2386.49 1321.65V1335.34C2383.07 1337.05 2379.08 1338.19 2375.08 1339.34C2371.09 1339.91 2366.52 1340.48 2361.39 1340.48C2353.97 1340.48 2347.69 1339.34 2342.56 1336.48C2336.85 1333.63 2332.86 1329.64 2329.43 1323.93C2326.58 1318.22 2324.87 1311.38 2324.87 1302.82C2324.87 1294.26 2326.01 1287.41 2328.86 1281.7C2331.72 1276 2335.71 1271.43 2340.85 1268.58C2345.98 1265.73 2351.69 1264.02 2358.53 1264.02ZM2358.53 1276.57C2353.97 1276.57 2350.55 1278.28 2347.69 1281.13C2344.84 1283.99 2343.13 1288.55 2342.56 1294.26H2373.94C2373.94 1290.83 2373.37 1287.98 2372.23 1285.13C2371.09 1282.27 2369.38 1280.56 2367.09 1278.85C2364.81 1277.71 2361.96 1276.57 2358.53 1276.57Z" fill="#005EA1" />
  <path d="M2444.69 1264.02C2452.68 1264.02 2459.53 1266.3 2464.09 1270.29C2468.66 1274.29 2470.94 1281.13 2470.94 1290.83V1338.77H2453.82V1294.26C2453.82 1288.55 2452.68 1284.56 2450.4 1281.7C2448.12 1278.85 2444.69 1277.71 2440.13 1277.71C2433.28 1277.71 2428.72 1279.99 2425.86 1283.99C2423.58 1288.55 2421.87 1294.26 2421.87 1302.82V1338.77H2404.75V1265.73H2417.88L2420.16 1275.43H2421.3C2423.01 1273.15 2424.72 1270.86 2427.01 1269.15C2429.29 1267.44 2432.14 1266.3 2434.99 1265.73C2438.42 1264.59 2441.84 1264.02 2444.69 1264.02Z" fill="#005EA1" />
  <path d="M2519.45 1326.78C2521.73 1326.78 2523.44 1326.78 2525.72 1326.21C2527.43 1325.64 2529.72 1325.07 2531.43 1325.07V1337.63C2529.72 1338.2 2527.43 1339.34 2524.58 1339.91C2521.73 1340.48 2518.88 1341.05 2515.45 1341.05C2511.46 1341.05 2507.46 1340.48 2504.04 1338.77C2500.62 1337.63 2497.76 1334.77 2496.05 1331.35C2493.77 1327.93 2493.2 1323.36 2493.2 1317.08V1278.85H2483.5V1271.44L2494.34 1265.73L2499.48 1250.32H2510.32V1266.3H2531.43V1279.42H2509.75V1317.65C2509.75 1321.08 2510.89 1323.36 2512.6 1325.07C2514.31 1325.64 2516.59 1326.78 2519.45 1326.78Z" fill="#005EA1" />
  <path d="M2581.64 1236.63C2580.5 1237.77 2579.36 1239.48 2577.08 1241.19C2575.37 1242.9 2573.08 1244.62 2570.8 1246.9C2568.52 1248.61 2566.24 1250.89 2564.52 1252.6C2562.24 1254.32 2560.53 1256.03 2558.82 1257.17H2547.41V1255.46C2549.12 1253.75 2550.26 1251.46 2552.54 1249.18C2554.25 1246.9 2555.97 1244.62 2557.68 1241.76C2559.39 1239.48 2561.1 1237.2 2561.67 1234.92H2581.07V1236.63H2581.64ZM2565.1 1338.77H2547.98V1265.73H2565.1V1338.77Z" fill="#005EA1" />
  <path d="M2629 1278.28H2611.31V1338.77H2594.19V1278.28H2582.21V1270.29L2594.19 1265.16V1260.02C2594.19 1253.75 2595.33 1248.61 2597.05 1245.19C2598.76 1241.76 2602.18 1238.91 2605.61 1237.2C2609.6 1235.49 2613.59 1234.92 2618.73 1234.92C2622.15 1234.92 2625.58 1235.49 2628.43 1236.06C2631.28 1236.63 2633.57 1237.2 2635.85 1237.77L2631.28 1250.32C2629.57 1249.75 2627.86 1249.18 2626.15 1249.18C2624.44 1248.61 2622.15 1248.61 2619.87 1248.61C2616.45 1248.61 2614.16 1249.75 2612.45 1251.46C2610.74 1253.75 2610.17 1256.6 2610.17 1260.02V1264.59H2627.86V1278.28H2629Z" fill="#005EA1" />
  <path d="M2652.39 1237.2C2654.67 1237.2 2656.95 1237.77 2659.24 1238.91C2660.95 1240.05 2662.09 1242.33 2662.09 1245.76C2662.09 1249.18 2660.95 1251.46 2659.24 1252.61C2657.53 1253.75 2655.24 1254.89 2652.39 1254.89C2649.54 1254.89 2647.25 1254.32 2645.54 1252.61C2643.83 1251.46 2642.69 1248.61 2642.69 1245.76C2642.69 1242.33 2643.83 1240.05 2645.54 1238.91C2647.25 1237.77 2649.54 1237.2 2652.39 1237.2ZM2660.95 1265.73V1339.34H2643.83V1265.73H2660.95Z" fill="#005EA1" />
  <path d="M2707.18 1340.48C2700.33 1340.48 2694.05 1339.34 2688.92 1336.48C2683.78 1333.63 2679.79 1329.64 2676.94 1323.93C2674.08 1318.22 2672.94 1311.38 2672.94 1302.82C2672.94 1293.69 2674.65 1286.27 2677.51 1280.56C2680.36 1274.86 2684.92 1270.86 2690.06 1268.01C2695.2 1265.16 2701.47 1264.02 2708.32 1264.02C2712.88 1264.02 2716.88 1264.59 2720.87 1265.16C2724.3 1266.3 2727.72 1266.87 2730 1268.58L2724.87 1281.7C2722.01 1280.56 2719.16 1279.42 2716.31 1278.85C2713.45 1278.28 2710.6 1277.71 2708.32 1277.71C2704.32 1277.71 2700.9 1278.85 2698.05 1280.56C2695.2 1282.28 2693.48 1285.13 2692.34 1288.55C2691.2 1291.98 2690.63 1296.54 2690.63 1302.25C2690.63 1307.38 2691.2 1311.95 2692.34 1315.37C2693.48 1318.79 2695.77 1321.65 2698.05 1323.36C2700.9 1325.07 2703.75 1326.21 2707.75 1326.21C2711.74 1326.21 2715.74 1325.64 2718.59 1324.5C2722.01 1323.36 2724.87 1322.22 2727.72 1320.51V1335.34C2724.87 1337.05 2722.01 1338.19 2718.59 1339.34C2716.31 1339.91 2712.31 1340.48 2707.18 1340.48Z" fill="#005EA1" />
  <path d="M2772.79 1264.02C2782.49 1264.02 2789.34 1266.3 2794.47 1270.29C2799.61 1274.29 2801.89 1280.56 2801.89 1289.69V1338.77H2789.91L2786.49 1328.49H2785.91C2783.63 1331.35 2781.92 1333.06 2779.64 1335.34C2777.36 1337.05 2775.07 1338.19 2772.22 1339.34C2769.37 1339.91 2765.94 1340.48 2761.95 1340.48C2757.38 1340.48 2753.96 1339.91 2749.97 1338.19C2746.54 1336.48 2743.69 1334.2 2741.98 1330.78C2740.27 1327.35 2739.12 1323.36 2739.12 1318.22C2739.12 1310.81 2741.98 1305.1 2747.68 1301.11C2753.39 1297.11 2761.38 1295.4 2772.79 1294.83L2785.34 1294.26V1290.83C2785.34 1286.27 2784.2 1282.85 2781.92 1280.56C2779.64 1278.85 2776.78 1277.71 2772.22 1277.71C2768.8 1277.71 2764.8 1278.28 2761.38 1279.42C2757.95 1280.56 2754.53 1281.7 2751.11 1283.42L2745.97 1271.43C2749.4 1269.72 2753.96 1268.01 2758.53 1266.87C2763.09 1264.59 2767.66 1264.02 2772.79 1264.02ZM2776.21 1304.53C2768.8 1304.53 2763.66 1306.24 2760.81 1308.52C2757.95 1310.81 2756.24 1313.66 2756.24 1317.65C2756.24 1321.08 2757.38 1323.36 2759.1 1325.07C2761.38 1326.78 2763.66 1327.35 2767.08 1327.35C2772.22 1327.35 2776.21 1326.21 2779.64 1323.36C2783.06 1320.51 2784.77 1316.51 2784.77 1310.81V1304.53H2776.21Z" fill="#005EA1" />
  <path d="M1285.79 711.67H1061.55L1062.12 602.114V596.408C1062.12 593.554 1060.97 591.843 1059.83 590.701C1056.41 587.278 1047.85 587.278 1047.85 587.278H811.049H810.479C807.055 587.278 804.202 588.419 801.92 590.701L678.098 714.523C675.245 717.376 672.963 720.8 672.392 725.364V832.068L549.141 955.319C548 956.46 548 958.172 548 959.883L548.571 1201.82C548.571 1208.67 554.847 1214.94 562.265 1214.94H786.513V1325.64C786.513 1325.64 785.943 1334.77 790.508 1337.05C791.649 1337.62 793.931 1338.2 796.214 1338.2L1040.43 1338.77C1044.43 1338.77 1045 1337.05 1046.71 1335.34L1169.39 1212.09C1172.24 1209.24 1175.1 1206.96 1175.67 1200.68V1092.83L1296.06 971.866C1296.64 971.296 1297.21 970.725 1297.78 969.584V969.013C1298.92 966.731 1300.06 964.448 1300.06 961.595V724.223C1298.92 717.947 1293.21 711.67 1285.79 711.67ZM1253.84 975.86L1175.67 1054.03V975.86H1253.84ZM1129.45 1213.8L1051.27 1291.98V1214.37L1129.45 1213.8ZM593.648 947.901L672.963 868.587V947.901H593.648ZM787.084 1186.98H575.96V975.86H787.084V1186.98ZM719.752 711.099L797.925 632.926V711.099H719.752ZM1273.81 947.901H1062.69V736.777H1273.81V947.901ZM1148.28 975.86V1186.98H938.295V1092.26L1054.7 975.86H1148.28ZM911.476 739.059V831.497L795.072 947.901H700.352V737.918L911.476 739.059ZM833.874 1311.38L930.877 1213.8H1023.89V1311.38H833.874ZM910.335 870.869L910.905 1081.42V1194.97L813.332 1292.55V969.013L910.335 870.869ZM824.744 711.099V613.526H1016.47L918.894 711.099H824.744ZM938.295 1054.03V729.929L1035.87 632.356V957.03L938.295 1054.03Z" fill="#005EA1" />
</svg>
