<svg width="10583" height="1955" viewBox="0 0 10583 1955" fill="none" xmlns="http://www.w3.org/2000/svg">
<path d="M4476.54 763.976V662.915L4434.52 740.041H4421.23L4379.21 662.915V763.976H4356.87V621.959H4380.8L4427.61 708.659L4474.42 621.959H4498.35V763.976H4476.54Z" fill="#222221"/>
<path d="M4568.03 763.976V621.959H4590.37V763.976H4568.03Z" fill="#222221"/>
<path d="M4682.39 663.447V763.976H4660.05V621.959H4678.66L4759.51 724.616V621.959H4781.85V763.976H4762.17L4682.39 663.447Z" fill="#222221"/>
<path d="M4850.47 763.976V621.959H4872.81V763.976H4850.47Z" fill="#222221"/>
<path d="M5025.99 654.936C5022.8 651.745 5017.48 648.553 5010.57 645.362C5003.12 642.17 4995.67 640.575 4987.7 640.575C4978.65 640.575 4971.74 642.17 4966.95 645.894C4962.16 649.085 4960.04 654.404 4960.04 660.255C4960.04 662.383 4960.04 663.978 4960.57 665.574C4961.1 667.17 4961.63 668.765 4962.7 669.829C4963.76 670.893 4964.82 671.957 4966.42 673.552C4968.02 674.616 4969.61 675.68 4971.21 676.212C4972.8 676.744 4974.93 677.808 4977.59 678.871C4980.25 679.935 4982.91 680.467 4985.57 680.999C4988.23 681.531 4990.89 682.595 4995.14 683.659C5001.53 685.254 5006.84 686.85 5011.1 687.914C5015.35 688.978 5019.61 691.105 5023.86 693.233C5028.12 695.36 5031.31 698.02 5033.97 700.679C5036.63 703.339 5038.23 707.062 5039.82 710.785C5041.42 714.509 5041.95 719.296 5041.95 724.615C5041.95 730.466 5040.89 735.253 5039.29 740.04C5037.69 744.827 5035.03 748.55 5031.84 751.742C5028.65 754.933 5024.93 757.593 5020.67 759.72C5016.42 761.848 5011.63 763.444 5006.31 764.507C5000.99 765.571 4995.67 766.103 4989.82 766.103C4979.19 766.103 4968.55 764.507 4958.44 761.316C4948.34 758.125 4939.29 753.338 4931.31 746.955L4941.42 727.806C4945.68 732.062 4952.06 736.317 4961.63 740.04C4970.68 743.763 4980.25 745.891 4990.36 745.891C4999.4 745.891 5006.31 744.295 5011.1 741.104C5015.89 737.912 5018.55 733.657 5018.55 727.806C5018.55 725.679 5018.01 723.551 5017.48 721.424C5016.95 719.296 5015.35 717.7 5013.76 716.105C5012.16 714.509 5010.04 713.445 5008.44 712.381C5006.84 711.317 5004.18 710.254 5000.46 709.19C4997.27 708.126 4994.08 707.062 4990.89 705.998C4987.7 704.935 4983.97 704.403 4979.19 702.807C4971.74 700.679 4965.36 699.084 4960.57 696.956C4955.78 694.829 4951.53 692.701 4947.8 689.509C4944.08 686.318 4941.42 683.127 4939.82 678.871C4938.23 674.616 4937.17 670.361 4937.17 664.51C4937.17 657.595 4938.23 651.745 4940.89 645.894C4943.55 640.575 4947.27 635.788 4952.06 632.064C4956.85 628.341 4962.16 625.681 4968.55 624.086C4974.93 622.49 4981.84 621.426 4988.76 621.426C5006.31 621.426 5022.27 626.745 5036.63 637.383L5025.99 654.936Z" fill="#222221"/>
<path d="M5205.77 641.639H5158.44V763.976H5135.56V641.639H5088.22V621.959H5205.77V641.639Z" fill="#222221"/>
<path d="M5358.96 743.763V763.443H5261.62V621.426H5357.37V641.106H5283.96V681.531H5347.26V700.147H5283.96V743.763H5358.96ZM5319.6 607.065L5305.24 602.809L5316.94 581.001H5338.22L5319.6 607.065Z" fill="#222221"/>
<path d="M5419.61 763.976V621.959H5481.31C5487.69 621.959 5493.54 623.555 5498.86 626.214C5504.18 628.874 5508.96 632.597 5512.69 636.852C5516.41 641.107 5519.6 646.426 5521.73 651.745C5523.86 657.064 5524.92 662.915 5524.92 668.766C5524.92 678.34 5522.26 687.383 5517.48 694.829C5512.69 702.276 5505.77 707.595 5497.26 710.786L5530.77 765.04H5505.77L5474.92 715.573H5441.95V765.04H5419.61V763.976ZM5441.95 694.297H5481.31C5487.69 694.297 5492.48 691.638 5496.73 686.319C5500.99 681 5502.58 674.617 5502.58 667.702C5502.58 660.256 5500.45 654.405 5495.67 649.086C5490.88 643.767 5485.56 641.107 5479.71 641.107H5441.41V694.297H5441.95Z" fill="#222221"/>
<path d="M5588.75 763.976V621.959H5611.09V763.976H5588.75Z" fill="#222221"/>
<path d="M5671.19 692.701C5671.19 683.126 5672.79 674.084 5676.51 665.574C5680.23 657.063 5684.49 649.085 5690.87 642.702C5696.72 636.319 5704.17 631 5712.68 626.745C5721.19 623.022 5730.23 620.894 5739.81 620.894C5749.91 620.894 5758.96 623.022 5767.47 627.277C5775.98 631.532 5783.42 636.851 5789.27 643.766C5795.12 650.68 5799.38 658.127 5803.1 667.169C5806.29 675.68 5807.89 684.722 5807.89 693.764C5807.89 703.339 5806.29 712.381 5802.57 720.891C5798.85 729.402 5794.59 737.38 5788.21 743.763C5782.36 750.146 5774.91 755.465 5766.4 759.72C5757.89 763.443 5748.85 765.571 5739.27 765.571C5731.3 765.571 5723.85 764.507 5716.4 761.848C5709.49 759.188 5703.11 755.465 5697.25 751.21C5691.94 746.423 5687.15 741.104 5682.89 735.253C5678.64 729.402 5675.98 722.487 5673.85 715.572C5672.26 707.062 5671.19 700.147 5671.19 692.701ZM5739.81 744.827C5746.72 744.827 5753.1 743.231 5758.95 740.572C5764.81 737.912 5769.59 733.657 5773.32 728.87C5777.04 724.083 5779.7 718.232 5781.83 712.381C5783.95 705.998 5785.02 700.147 5785.02 693.764C5785.02 686.85 5783.95 680.467 5781.83 674.616C5779.7 668.233 5776.51 662.914 5772.78 658.127C5769.06 653.34 5764.27 649.617 5758.42 646.425C5752.57 643.766 5746.72 642.17 5739.81 642.17C5732.89 642.17 5726.51 643.766 5720.66 646.425C5714.81 649.617 5710.02 653.34 5706.3 658.127C5702.57 662.914 5699.38 668.765 5697.25 674.616C5695.13 680.999 5694.06 686.85 5694.06 693.233C5694.06 702.275 5695.66 710.785 5699.38 718.232C5703.11 725.678 5708.42 732.593 5715.34 737.38C5722.79 742.167 5730.76 744.827 5739.81 744.827Z" fill="#222221"/>
<path d="M5954.16 763.976V621.959H6004.69C6015.86 621.959 6025.97 623.555 6035.01 627.278C6044.05 631.001 6050.97 635.788 6056.82 642.703C6062.67 649.618 6066.92 656.533 6069.58 665.043C6072.78 673.553 6073.84 682.596 6073.84 692.702C6073.84 713.978 6067.46 731.53 6054.69 744.296C6041.93 757.062 6025.44 763.976 6004.16 763.976H5954.16ZM6004.69 641.639H5976.5V744.296H6004.69C6014.27 744.296 6022.78 742.168 6030.22 737.381C6037.14 732.594 6042.46 726.743 6046.18 719.297C6049.9 711.85 6051.5 702.808 6051.5 693.234C6051.5 677.809 6047.24 665.575 6039.27 656.533C6030.76 646.426 6019.59 641.639 6004.69 641.639Z" fill="#222221"/>
<path d="M6170.64 621.426H6191.92L6247.24 763.444H6223.83L6208.94 724.615H6153.62L6138.73 763.444H6114.79L6170.64 621.426ZM6204.15 708.658L6181.28 646.426L6157.88 708.658H6204.15Z" fill="#222221"/>
<path d="M3439.34 902.271C3452.64 902.271 3464.34 904.93 3474.98 910.781C3485.08 916.632 3493.06 924.078 3497.85 933.121L3468.06 954.397C3467 951.205 3464.87 948.014 3462.74 945.886C3460.61 943.759 3457.96 941.631 3455.3 940.567C3452.64 939.504 3449.98 938.44 3447.32 937.908C3444.66 937.376 3442 936.844 3438.81 936.844C3433.49 936.844 3428.7 937.908 3424.45 940.035C3420.19 942.163 3417 945.354 3414.34 948.546C3411.68 952.269 3410.08 955.992 3408.49 960.248C3407.42 964.503 3406.36 968.758 3406.36 973.545C3406.36 983.651 3409.55 992.694 3415.4 1000.14C3421.25 1007.59 3429.23 1011.31 3438.81 1011.31C3442.53 1011.31 3446.25 1010.78 3449.98 1009.71C3453.7 1008.65 3456.89 1006.52 3460.08 1003.86C3463.27 1001.2 3465.93 998.013 3467 993.757L3498.91 1012.91C3496.25 1019.82 3491.46 1025.67 3485.08 1030.46C3478.17 1035.78 3470.72 1039.5 3462.74 1042.16C3454.76 1044.82 3446.25 1045.88 3438.27 1045.88C3428.17 1045.88 3418.59 1043.76 3409.55 1039.5C3400.51 1035.25 3393.06 1029.93 3386.68 1023.01C3380.3 1016.1 3375.51 1008.12 3372.32 999.608C3368.6 990.566 3367 982.056 3367 973.013C3367 964.503 3368.6 955.461 3371.79 947.482C3374.98 938.972 3379.77 931.525 3385.62 924.61C3391.47 917.696 3399.45 912.377 3408.49 908.121C3418.59 903.866 3428.7 902.271 3439.34 902.271Z" fill="#222221"/>
<path d="M3549.97 1044.82V902.803H3588.8V1044.82H3549.97Z" fill="#222221"/>
<path d="M3752.09 1010.78V1044.82H3651.03V902.802H3750.49V936.844H3689.86V957.056H3741.45V988.438H3689.86V1010.78H3752.09ZM3665.39 885.25L3688.26 862.378H3715.39L3738.26 885.25L3719.11 893.76L3702.09 880.994L3685.07 893.76L3665.39 885.25Z" fill="#222221"/>
<path d="M3846.24 975.141V1044.82H3807.41V902.803H3837.73L3894.64 975.141V902.803H3933.47V1044.82H3902.62L3846.24 975.141Z" fill="#222221"/>
<path d="M4060.06 902.271C4073.36 902.271 4085.06 904.93 4095.7 910.781C4105.8 916.632 4113.78 924.078 4118.57 933.121L4088.78 954.397C4087.72 951.205 4085.59 948.014 4083.46 945.886C4081.34 943.759 4078.68 941.631 4076.02 940.567C4073.36 939.504 4070.7 938.44 4068.04 937.908C4065.38 937.376 4062.72 936.844 4059.53 936.844C4054.21 936.844 4049.42 937.908 4045.17 940.035C4040.91 942.163 4037.72 945.354 4035.06 948.546C4032.4 952.269 4030.81 955.992 4029.21 960.248C4028.15 964.503 4027.08 968.758 4027.08 973.545C4027.08 983.651 4030.27 992.694 4036.13 1000.14C4041.98 1007.59 4049.95 1011.31 4059.53 1011.31C4063.25 1011.31 4066.98 1010.78 4070.7 1009.71C4074.42 1008.65 4077.61 1006.52 4080.81 1003.86C4084 1001.2 4086.66 998.013 4087.72 993.757L4119.63 1012.91C4116.97 1019.82 4112.19 1025.67 4105.8 1030.46C4098.89 1035.78 4091.44 1039.5 4083.46 1042.16C4075.49 1044.82 4066.98 1045.88 4059 1045.88C4048.89 1045.88 4039.32 1043.76 4030.27 1039.5C4021.23 1035.25 4013.79 1029.93 4007.4 1023.01C4001.02 1016.1 3996.23 1008.12 3993.04 999.608C3989.32 990.566 3987.72 982.056 3987.72 973.013C3987.72 964.503 3989.32 955.461 3992.51 947.482C3995.7 938.972 4000.49 931.525 4006.34 924.61C4012.19 917.696 4020.17 912.377 4029.21 908.121C4038.79 903.866 4048.89 902.271 4060.06 902.271Z" fill="#222221"/>
<path d="M4170.7 1044.82V902.803H4209.53V1044.82H4170.7Z" fill="#222221"/>
<path d="M4304.21 902.803H4347.83L4393.04 1044.82H4353.68L4345.17 1017.16H4307.4L4298.89 1044.82H4259L4304.21 902.803ZM4338.78 991.098L4326.02 941.1L4312.72 991.098H4338.78Z" fill="#222221"/>
<path d="M4443.57 1076.73L4451.01 1045.35H4439.31V1008.65H4470.69V1045.35L4460.05 1076.73H4443.57Z" fill="#222221"/>
<path d="M4717.49 936.844H4676.54V1044.82H4637.71V936.844H4596.75V902.803H4717.49V936.844Z" fill="#222221"/>
<path d="M4870.15 1010.78V1044.82H4769.08V902.803H4868.55V936.844H4807.91V957.057H4859.51V988.439H4807.91V1010.78H4870.15Z" fill="#222221"/>
<path d="M4987.7 902.271C5001 902.271 5012.7 904.93 5023.34 910.781C5033.44 916.632 5041.42 924.078 5046.21 933.121L5016.42 954.397C5015.36 951.205 5013.23 948.014 5011.1 945.886C5008.98 943.759 5006.32 941.631 5003.66 940.567C5001 939.504 4998.34 938.44 4995.68 937.908C4993.02 937.376 4990.36 936.844 4987.17 936.844C4981.85 936.844 4977.06 937.908 4972.81 940.035C4968.55 942.163 4965.36 945.354 4962.7 948.546C4960.04 952.269 4958.44 955.992 4956.85 960.248C4955.79 964.503 4954.72 968.758 4954.72 973.545C4954.72 983.651 4957.91 992.694 4963.76 1000.14C4969.61 1007.59 4977.59 1011.31 4987.7 1011.31C4991.42 1011.31 4995.15 1010.78 4998.87 1009.71C5002.59 1008.65 5005.78 1006.52 5008.98 1003.86C5012.17 1001.2 5014.83 998.013 5015.89 993.757L5047.8 1012.91C5045.14 1019.82 5040.36 1025.67 5033.97 1030.46C5027.06 1035.78 5019.61 1039.5 5011.63 1042.16C5003.66 1044.82 4995.15 1045.88 4987.17 1045.88C4977.06 1045.88 4967.49 1043.76 4958.44 1039.5C4949.4 1035.25 4941.96 1029.93 4935.57 1023.01C4929.19 1016.1 4924.4 1008.12 4921.21 999.608C4917.49 990.566 4915.89 982.056 4915.89 973.013C4915.89 964.503 4917.49 955.461 4920.68 947.482C4923.87 938.972 4928.66 931.525 4934.51 924.61C4940.36 917.696 4948.34 912.377 4957.38 908.121C4966.95 903.866 4977.06 902.271 4987.7 902.271Z" fill="#222221"/>
<path d="M5137.69 975.141V1044.82H5098.87V902.803H5129.18L5186.1 975.141V902.803H5224.93V1044.82H5194.08L5137.69 975.141Z" fill="#222221"/>
<path d="M5278.65 973.544C5278.65 963.97 5280.24 955.46 5283.97 946.417C5287.69 937.907 5292.48 929.928 5298.86 923.546C5305.24 917.163 5312.69 911.844 5321.73 907.589C5330.77 903.865 5340.35 901.738 5350.99 901.738C5361.62 901.738 5371.2 903.865 5380.24 908.121C5389.28 912.376 5396.73 917.695 5403.11 924.61C5408.96 931.524 5413.75 938.971 5417.47 948.013C5421.2 956.524 5422.79 965.566 5422.79 974.608C5422.79 983.65 5421.2 992.693 5417.47 1001.74C5413.75 1010.25 5408.96 1018.22 5402.58 1024.61C5396.2 1030.99 5388.75 1036.31 5379.71 1040.56C5370.67 1044.29 5361.09 1046.41 5350.45 1046.41C5339.82 1046.41 5330.24 1044.29 5321.2 1040.03C5312.16 1035.78 5304.71 1030.46 5298.33 1023.54C5291.95 1016.63 5287.16 1009.18 5283.97 1000.14C5280.78 991.097 5278.65 982.587 5278.65 973.544ZM5350.99 1011.31C5356.31 1011.31 5361.09 1010.25 5365.35 1008.12C5369.6 1005.99 5372.79 1002.8 5375.45 999.607C5378.11 995.884 5379.71 992.161 5381.31 987.374C5382.37 983.118 5383.43 978.331 5383.43 973.544C5383.43 967.162 5382.37 960.779 5379.71 955.46C5377.58 950.141 5373.86 945.354 5368.54 942.162C5363.22 938.439 5357.37 936.843 5350.45 936.843C5345.14 936.843 5340.35 937.907 5336.09 940.035C5331.84 942.162 5328.65 944.822 5325.99 948.545C5323.33 952.268 5321.73 955.992 5320.14 960.247C5319.07 964.502 5318.01 969.289 5318.01 974.076C5318.01 978.863 5318.54 983.65 5320.14 987.906C5321.73 992.161 5323.33 996.416 5325.99 999.607C5328.65 1002.8 5331.84 1005.99 5336.09 1008.12C5340.88 1010.78 5345.67 1011.31 5350.99 1011.31Z" fill="#222221"/>
<path d="M5476.51 1044.82V902.803H5515.34V1010.78H5579.7V1044.82H5476.51Z" fill="#222221"/>
<path d="M5621.19 973.544C5621.19 963.97 5622.79 955.46 5626.51 946.417C5630.23 937.907 5635.02 929.928 5641.4 923.546C5647.78 917.163 5655.23 911.844 5664.27 907.589C5673.32 903.865 5682.89 901.738 5693.53 901.738C5704.17 901.738 5713.74 903.865 5722.78 908.121C5731.82 912.376 5739.27 917.695 5745.65 924.61C5751.5 931.524 5756.29 938.971 5760.02 948.013C5763.74 956.524 5765.33 965.566 5765.33 974.608C5765.33 983.65 5763.74 992.693 5760.02 1001.74C5756.29 1010.25 5751.5 1018.22 5745.12 1024.61C5738.74 1030.99 5731.29 1036.31 5722.25 1040.56C5713.21 1044.29 5703.63 1046.41 5693 1046.41C5682.36 1046.41 5672.78 1044.29 5663.74 1040.03C5654.7 1035.78 5647.25 1030.46 5640.87 1023.54C5634.49 1016.63 5629.7 1009.18 5626.51 1000.14C5623.32 991.097 5621.19 982.587 5621.19 973.544ZM5693.53 1011.31C5698.85 1011.31 5703.63 1010.25 5707.89 1008.12C5712.14 1005.99 5715.34 1002.8 5718 999.607C5720.65 995.884 5722.25 992.161 5723.85 987.374C5724.91 983.118 5725.97 978.331 5725.97 973.544C5725.97 967.162 5724.91 960.779 5722.25 955.46C5720.12 950.141 5716.4 945.354 5711.08 942.162C5705.76 938.439 5699.91 936.843 5693 936.843C5687.68 936.843 5682.89 937.907 5678.63 940.035C5674.38 942.162 5671.19 944.822 5668.53 948.545C5665.87 952.268 5664.27 955.992 5662.68 960.247C5661.61 964.502 5660.55 969.289 5660.55 974.076C5660.55 978.863 5661.08 983.65 5662.68 987.906C5664.27 992.161 5665.87 996.416 5668.53 999.607C5671.19 1002.8 5674.38 1005.99 5678.63 1008.12C5683.42 1010.78 5688.21 1011.31 5693.53 1011.31Z" fill="#222221"/>
<path d="M5889.81 969.29H5948.32V1044.82H5915.87V1033.12C5905.77 1041.63 5894.06 1045.88 5880.77 1045.88C5871.19 1045.88 5862.68 1044.29 5854.17 1041.1C5845.66 1037.91 5838.75 1033.12 5832.36 1026.74C5825.98 1020.88 5821.19 1012.91 5817.47 1003.86C5813.75 994.821 5812.15 984.183 5812.15 973.014C5812.15 962.907 5814.28 953.865 5818 945.355C5821.73 936.844 5827.05 928.866 5833.43 923.015C5839.81 916.632 5847.79 911.845 5856.83 908.122C5865.87 904.398 5875.45 902.803 5885.55 902.803C5898.32 902.803 5910.02 905.462 5920.13 911.313C5930.23 916.632 5938.21 924.611 5943.53 934.185L5914.81 956.525C5912.15 950.674 5907.89 946.419 5902.04 943.227C5896.19 940.036 5890.34 937.908 5883.96 937.908C5874.92 937.908 5866.94 941.631 5861.09 948.546C5855.24 955.461 5852.04 964.503 5852.04 975.673C5852.04 986.843 5855.24 995.885 5861.09 1002.8C5866.94 1009.71 5874.92 1012.91 5885.02 1012.91C5896.19 1012.91 5906.3 1008.12 5915.34 999.077H5890.87V969.29H5889.81Z" fill="#222221"/>
<path d="M6004.7 1044.82V902.803H6043.52V1044.82H6004.7Z" fill="#222221"/>
<path d="M6137.66 902.803H6181.28L6226.49 1044.82H6187.13L6178.62 1017.16H6140.85L6132.34 1044.82H6092.45L6137.66 902.803ZM6172.24 991.098L6159.47 941.1L6146.17 991.098H6172.24Z" fill="#222221"/>
<path d="M4817.49 1294.81V1328.85H4716.43V1186.84H4815.9V1220.88H4755.26V1241.09H4806.85V1272.47H4755.26V1294.81H4817.49Z" fill="#222221"/>
<path d="M4954.72 1328.85V1186.84H4993.55V1328.85H4954.72Z" fill="#222221"/>
<path d="M5094.62 1259.18V1328.85H5055.79V1186.84H5086.11L5143.02 1259.18V1186.84H5181.85V1328.85H5151L5094.62 1259.18Z" fill="#222221"/>
<path d="M5235.56 1257.58C5235.56 1248 5237.16 1239.49 5240.88 1230.45C5244.61 1221.41 5249.39 1213.96 5255.78 1207.58C5262.16 1201.2 5269.61 1195.88 5278.65 1191.62C5287.69 1187.9 5297.26 1185.77 5307.9 1185.77C5318.54 1185.77 5328.11 1187.9 5337.16 1192.16C5346.2 1196.41 5353.65 1201.73 5360.03 1208.64C5366.41 1215.56 5370.67 1223.01 5374.39 1232.05C5378.11 1240.56 5379.71 1249.6 5379.71 1258.64C5379.71 1267.69 5378.11 1276.73 5374.39 1285.77C5370.67 1294.28 5365.88 1302.26 5359.5 1308.64C5353.11 1315.02 5345.67 1320.34 5336.63 1324.6C5327.58 1328.32 5318.01 1330.45 5307.37 1330.45C5296.73 1330.45 5287.16 1328.32 5278.12 1324.07C5269.07 1319.81 5261.63 1314.49 5255.24 1307.58C5248.86 1300.66 5244.07 1293.22 5240.88 1284.17C5237.16 1275.66 5235.56 1266.62 5235.56 1257.58ZM5307.9 1295.34C5313.22 1295.34 5318.01 1294.28 5322.26 1292.15C5326.52 1290.02 5329.71 1286.83 5332.37 1283.64C5335.03 1280.45 5336.63 1276.2 5338.22 1271.41C5339.28 1267.15 5340.35 1262.37 5340.35 1257.58C5340.35 1251.2 5339.29 1244.81 5336.63 1239.49C5334.5 1234.18 5330.77 1229.39 5325.46 1226.2C5320.14 1222.47 5314.29 1220.88 5307.37 1220.88C5302.05 1220.88 5297.26 1221.94 5293.01 1224.07C5288.75 1226.2 5285.56 1228.86 5282.9 1232.58C5280.24 1236.3 5278.65 1240.03 5277.05 1244.28C5275.99 1248.54 5274.92 1253.32 5274.92 1258.11C5274.92 1262.9 5275.46 1267.69 5277.05 1271.94C5278.65 1276.2 5280.24 1280.45 5282.9 1283.64C5285.56 1286.83 5288.75 1290.02 5293.01 1292.15C5297.8 1294.81 5302.58 1295.34 5307.9 1295.34Z" fill="#222221"/>
<path d="M5455.78 1186.84L5483.44 1284.18L5511.1 1186.84H5552.05L5503.12 1328.85H5464.29L5414.82 1186.84H5455.78Z" fill="#222221"/>
<path d="M5621.2 1186.84H5664.81L5710.02 1328.85H5670.66L5662.15 1301.2H5624.39L5615.88 1328.85H5575.99L5621.2 1186.84ZM5655.24 1275.13L5642.47 1225.13L5629.18 1275.13H5655.24Z" fill="#222221"/>
<path d="M5877.57 1296.94C5874.37 1305.45 5867.99 1312.36 5858.42 1318.22C5848.84 1324.07 5839.27 1327.79 5828.1 1329.39C5834.48 1335.77 5837.67 1342.68 5837.67 1350.66C5837.67 1357.04 5835.55 1362.36 5831.29 1366.62C5827.04 1370.87 5821.18 1373 5813.21 1373C5805.23 1373 5797.25 1370.87 5788.21 1366.09L5797.25 1346.41C5800.44 1349.07 5803.63 1350.13 5806.82 1350.13C5809.48 1350.13 5811.08 1349.6 5812.67 1348C5814.27 1346.41 5814.8 1344.81 5814.8 1342.15C5814.8 1337.9 5812.14 1333.64 5807.35 1328.85C5798.31 1327.79 5789.8 1325.13 5781.82 1320.34C5773.84 1315.56 5767.46 1310.24 5761.61 1303.32C5756.29 1296.41 5752.04 1288.96 5748.85 1280.98C5745.65 1273 5744.06 1264.49 5744.06 1255.98C5744.06 1247.47 5745.65 1238.43 5748.85 1230.45C5752.04 1221.94 5756.82 1214.49 5762.68 1207.58C5768.53 1200.67 5776.5 1195.35 5785.55 1191.09C5795.12 1186.84 5805.23 1184.71 5815.87 1184.71C5829.16 1184.71 5840.86 1187.37 5851.5 1193.22C5861.61 1199.07 5869.59 1206.52 5874.37 1215.56L5844.59 1236.83C5843.52 1233.64 5841.4 1230.45 5839.27 1228.32C5837.14 1226.2 5834.48 1224.07 5831.82 1223.01C5829.16 1221.94 5826.5 1220.88 5823.84 1220.35C5821.18 1219.81 5818.52 1219.28 5815.33 1219.28C5810.01 1219.28 5805.23 1220.35 5800.97 1222.47C5796.72 1224.6 5793.53 1227.79 5790.87 1230.98C5788.21 1234.71 5786.61 1238.43 5785.01 1242.69C5783.95 1246.94 5782.89 1251.2 5782.89 1255.98C5782.89 1266.09 5786.08 1275.13 5791.93 1282.58C5797.78 1290.02 5805.76 1293.75 5815.33 1293.75C5819.06 1293.75 5822.78 1293.22 5826.5 1292.15C5830.23 1291.09 5833.42 1288.96 5836.61 1286.3C5839.8 1283.64 5842.46 1280.45 5843.52 1276.2L5877.57 1296.94Z" fill="#222221"/>
<path d="M5958.96 1186.84H6002.57L6047.78 1328.85H6008.42L5999.91 1301.2H5962.15L5953.64 1328.85H5913.75L5958.96 1186.84ZM5968 1168.22C5966.4 1168.22 5964.81 1168.75 5963.74 1169.28C5962.68 1169.82 5961.62 1170.88 5961.09 1171.41C5960.55 1171.94 5960.02 1173.01 5959.49 1174.07C5958.96 1175.14 5958.96 1175.67 5958.96 1176.2C5958.96 1176.73 5958.96 1177.26 5958.96 1177.26H5938.75C5938.75 1175.67 5939.28 1173.54 5939.81 1171.41C5940.34 1168.75 5941.4 1166.09 5943 1163.43C5944.6 1160.24 5946.19 1157.58 5948.32 1154.92C5950.45 1152.26 5953.11 1150.14 5956.3 1148.54C5959.49 1146.94 5963.21 1145.88 5966.94 1145.88C5970.13 1145.88 5972.79 1146.41 5975.45 1147.48C5978.11 1148.54 5980.23 1149.6 5981.83 1151.2C5983.42 1152.26 5985.55 1153.86 5987.68 1154.92C5989.81 1155.99 5991.94 1156.52 5994.06 1156.52C5995.66 1156.52 5997.25 1155.99 5998.32 1155.46C5999.38 1154.92 6000.45 1153.86 6001.51 1152.8C6002.04 1151.73 6002.57 1150.67 6003.1 1149.6C6003.64 1148.54 6003.64 1147.48 6004.17 1146.94C6004.17 1146.41 6004.17 1145.88 6004.17 1145.88H6024.38C6024.38 1146.94 6023.85 1148.54 6023.32 1151.2C6022.79 1153.33 6021.72 1155.99 6020.13 1159.18C6018.53 1162.37 6016.93 1165.03 6014.81 1167.69C6012.68 1170.35 6010.02 1172.48 6006.83 1174.6C6003.64 1176.73 5999.91 1177.26 5996.19 1177.26C5993.53 1177.26 5990.87 1176.73 5988.21 1175.67C5985.55 1174.6 5983.42 1173.54 5981.83 1172.48C5980.23 1171.41 5978.11 1170.35 5975.98 1169.28C5971.72 1168.22 5969.6 1168.22 5968 1168.22ZM5993.53 1275.13L5980.77 1225.13L5967.47 1275.13H5993.53Z" fill="#222221"/>
<path d="M6083.42 1257.58C6083.42 1248 6085.02 1239.49 6088.74 1230.45C6092.46 1221.41 6097.25 1213.96 6103.63 1207.58C6110.01 1201.2 6117.46 1195.88 6126.5 1191.62C6135.55 1187.9 6145.12 1185.77 6155.76 1185.77C6166.4 1185.77 6175.97 1187.9 6185.01 1192.16C6194.06 1196.41 6201.5 1201.73 6207.88 1208.64C6213.73 1215.56 6218.52 1223.01 6222.25 1232.05C6225.97 1240.56 6227.56 1249.6 6227.56 1258.64C6227.56 1267.69 6225.97 1276.73 6222.25 1285.77C6218.52 1294.28 6213.74 1302.26 6207.35 1308.64C6200.97 1315.02 6193.52 1320.34 6184.48 1324.6C6175.44 1328.32 6165.86 1330.45 6155.23 1330.45C6144.59 1330.45 6135.01 1328.32 6125.97 1324.07C6116.93 1319.81 6109.48 1314.49 6103.1 1307.58C6096.72 1300.66 6091.93 1293.22 6088.74 1284.17C6085.55 1275.13 6083.42 1266.62 6083.42 1257.58ZM6155.23 1295.34C6160.55 1295.34 6165.33 1294.28 6169.59 1292.15C6173.84 1290.02 6177.03 1286.83 6179.69 1283.64C6182.35 1279.92 6183.95 1276.2 6185.54 1271.41C6186.61 1267.15 6187.67 1262.37 6187.67 1257.58C6187.67 1251.2 6186.61 1244.81 6183.95 1239.49C6181.82 1234.18 6178.1 1229.39 6172.78 1226.2C6167.46 1222.47 6161.61 1220.88 6154.69 1220.88C6149.38 1220.88 6144.59 1221.94 6140.33 1224.07C6136.08 1226.2 6132.89 1228.86 6130.23 1232.58C6127.57 1236.3 6125.97 1240.03 6124.38 1244.28C6123.31 1248.54 6122.25 1253.32 6122.25 1258.11C6122.25 1262.9 6122.78 1267.69 6124.38 1271.94C6125.97 1276.2 6127.57 1280.45 6130.23 1283.64C6132.89 1286.83 6136.08 1290.02 6140.33 1292.15C6145.12 1294.81 6149.91 1295.34 6155.23 1295.34Z" fill="#222221"/>
<path d="M7002.99 1660.88C7013.72 1660.88 7022.48 1657.2 7029.24 1649.82C7036.02 1642.45 7039.41 1633.14 7039.41 1621.86C7039.41 1610.48 7036.02 1601.13 7029.24 1593.82C7022.48 1586.5 7013.72 1582.84 7002.99 1582.84H6976.98V1660.88H7002.99ZM7002.99 1564.95C7018.59 1564.95 7031.57 1570.43 7041.93 1581.38C7052.27 1592.33 7057.46 1605.82 7057.46 1621.86C7057.46 1637.79 7052.27 1651.26 7041.93 1662.25C7031.57 1673.26 7018.59 1678.76 7002.99 1678.76H6958.28V1564.95H7002.99Z" fill="black"/>
<path d="M7120.29 1651.06C7128.04 1658.8 7137.6 1662.69 7148.98 1662.69C7160.37 1662.69 7169.92 1658.8 7177.69 1651.06C7185.43 1643.31 7189.3 1633.58 7189.3 1621.88C7189.3 1610.17 7185.43 1600.44 7177.69 1592.69C7169.92 1584.95 7160.37 1581.07 7148.98 1581.07C7137.6 1581.07 7128.04 1584.95 7120.29 1592.69C7112.54 1600.44 7108.66 1610.17 7108.66 1621.88C7108.66 1633.58 7112.54 1643.31 7120.29 1651.06ZM7190.85 1663.73C7179.41 1675.17 7165.45 1680.89 7148.98 1680.89C7132.5 1680.89 7118.55 1675.17 7107.12 1663.73C7095.69 1652.31 7089.97 1638.35 7089.97 1621.88C7089.97 1605.4 7095.69 1591.44 7107.12 1580C7118.55 1568.58 7132.5 1562.86 7148.98 1562.86C7165.45 1562.86 7179.41 1568.58 7190.85 1580C7202.29 1591.44 7208.01 1605.4 7208.01 1621.88C7208.01 1638.35 7202.29 1652.31 7190.85 1663.73Z" fill="black"/>
<path d="M7326.67 1660.88H7373.01V1678.76H7307.98V1564.95H7326.67V1660.88Z" fill="black"/>
<path d="M7435.15 1638.28H7471.21L7453.23 1586.91L7435.15 1638.28ZM7485.39 1678.76L7477.35 1655.84H7428.96L7421 1678.76H7400.68L7441.98 1564.97H7464.41L7505.55 1678.76H7485.39Z" fill="black"/>
<path d="M7583.64 1660.88C7594.37 1660.88 7603.13 1657.2 7609.89 1649.82C7616.67 1642.45 7620.06 1633.14 7620.06 1621.86C7620.06 1610.48 7616.67 1601.13 7609.89 1593.82C7603.13 1586.5 7594.37 1582.84 7583.64 1582.84H7557.63V1660.88H7583.64ZM7583.64 1564.95C7599.24 1564.95 7612.22 1570.43 7622.58 1581.38C7632.93 1592.33 7638.11 1605.82 7638.11 1621.86C7638.11 1637.79 7632.93 1651.26 7622.58 1662.25C7612.22 1673.26 7599.24 1678.76 7583.64 1678.76H7538.93V1564.95H7583.64Z" fill="black"/>
<path d="M7700.94 1651.06C7708.69 1658.8 7718.25 1662.69 7729.63 1662.69C7741.02 1662.69 7750.57 1658.8 7758.34 1651.06C7766.08 1643.31 7769.95 1633.58 7769.95 1621.88C7769.95 1610.17 7766.08 1600.44 7758.34 1592.69C7750.57 1584.95 7741.02 1581.07 7729.63 1581.07C7718.25 1581.07 7708.69 1584.95 7700.94 1592.69C7693.19 1600.44 7689.31 1610.17 7689.31 1621.88C7689.31 1633.58 7693.19 1643.31 7700.94 1651.06ZM7771.5 1663.73C7760.06 1675.17 7746.11 1680.89 7729.63 1680.89C7713.15 1680.89 7699.2 1675.17 7687.77 1663.73C7676.34 1652.31 7670.62 1638.35 7670.62 1621.88C7670.62 1605.4 7676.34 1591.44 7687.77 1580C7699.2 1568.58 7713.15 1562.86 7729.63 1562.86C7746.11 1562.86 7760.06 1568.58 7771.5 1580C7782.94 1591.44 7788.66 1605.4 7788.66 1621.88C7788.66 1638.35 7782.94 1652.31 7771.5 1663.73Z" fill="black"/>
<path d="M7933.33 1660.88C7944.06 1660.88 7952.82 1657.2 7959.58 1649.82C7966.36 1642.45 7969.75 1633.14 7969.75 1621.86C7969.75 1610.48 7966.36 1601.13 7959.58 1593.82C7952.82 1586.5 7944.06 1582.84 7933.33 1582.84H7907.32V1660.88H7933.33ZM7933.33 1564.95C7948.94 1564.95 7961.91 1570.43 7972.27 1581.38C7982.62 1592.33 7987.8 1605.82 7987.8 1621.86C7987.8 1637.79 7982.62 1651.26 7972.27 1662.25C7961.91 1673.26 7948.94 1678.76 7933.33 1678.76H7888.62V1564.95H7933.33Z" fill="black"/>
<path d="M8050.63 1651.06C8058.38 1658.8 8067.95 1662.69 8079.32 1662.69C8090.72 1662.69 8100.27 1658.8 8108.03 1651.06C8115.78 1643.31 8119.64 1633.58 8119.64 1621.88C8119.64 1610.17 8115.78 1600.44 8108.03 1592.69C8100.27 1584.95 8090.72 1581.07 8079.32 1581.07C8067.95 1581.07 8058.38 1584.95 8050.63 1592.69C8042.89 1600.44 8039.01 1610.17 8039.01 1621.88C8039.01 1633.58 8042.89 1643.31 8050.63 1651.06ZM8121.2 1663.73C8109.76 1675.17 8095.8 1680.89 8079.32 1680.89C8062.85 1680.89 8048.89 1675.17 8037.47 1663.73C8026.03 1652.31 8020.31 1638.35 8020.31 1621.88C8020.31 1605.4 8026.03 1591.44 8037.47 1580C8048.89 1568.58 8062.85 1562.86 8079.32 1562.86C8095.8 1562.86 8109.76 1568.58 8121.2 1580C8132.63 1591.44 8138.35 1605.4 8138.35 1621.88C8138.35 1638.35 8132.63 1652.31 8121.2 1663.73Z" fill="black"/>
<path d="M8280.27 1622.19C8285.8 1622.19 8290.35 1620.32 8293.93 1616.58C8297.51 1612.84 8299.3 1608.11 8299.3 1602.35C8299.3 1596.6 8297.51 1591.87 8293.93 1588.13C8290.35 1584.39 8285.8 1582.52 8280.27 1582.52H8257.01V1622.19H8280.27ZM8280.27 1564.97C8291 1564.97 8299.96 1568.53 8307.19 1575.69C8314.38 1582.84 8317.99 1591.72 8317.99 1602.35C8317.99 1612.87 8314.38 1621.73 8307.19 1628.94C8299.96 1636.15 8291 1639.74 8280.27 1639.74H8257.01V1678.76H8238.32V1564.97H8280.27Z" fill="black"/>
<path d="M8379.03 1651.06C8386.77 1658.8 8396.34 1662.69 8407.72 1662.69C8419.11 1662.69 8428.66 1658.8 8436.42 1651.06C8444.17 1643.31 8448.03 1633.58 8448.03 1621.88C8448.03 1610.17 8444.17 1600.44 8436.42 1592.69C8428.66 1584.95 8419.11 1581.07 8407.72 1581.07C8396.34 1581.07 8386.77 1584.95 8379.03 1592.69C8371.28 1600.44 8367.4 1610.17 8367.4 1621.88C8367.4 1633.58 8371.28 1643.31 8379.03 1651.06ZM8449.59 1663.73C8438.15 1675.17 8424.19 1680.89 8407.72 1680.89C8391.24 1680.89 8377.28 1675.17 8365.86 1663.73C8354.42 1652.31 8348.7 1638.35 8348.7 1621.88C8348.7 1605.4 8354.42 1591.44 8365.86 1580C8377.28 1568.58 8391.24 1562.86 8407.72 1562.86C8424.19 1562.86 8438.15 1568.58 8449.59 1580C8461.02 1591.44 8466.74 1605.4 8466.74 1621.88C8466.74 1638.35 8461.02 1652.31 8449.59 1663.73Z" fill="black"/>
<path d="M8529.03 1678.76L8489.52 1564.95H8510L8540.24 1656.03L8570.64 1564.95H8590.97L8551.46 1678.76H8529.03Z" fill="black"/>
<path d="M8644.03 1651.06C8651.78 1658.8 8661.35 1662.69 8672.73 1662.69C8684.12 1662.69 8693.67 1658.8 8701.43 1651.06C8709.18 1643.31 8713.04 1633.58 8713.04 1621.88C8713.04 1610.17 8709.18 1600.44 8701.43 1592.69C8693.67 1584.95 8684.12 1581.07 8672.73 1581.07C8661.35 1581.07 8651.78 1584.95 8644.03 1592.69C8636.29 1600.44 8632.41 1610.17 8632.41 1621.88C8632.41 1633.58 8636.29 1643.31 8644.03 1651.06ZM8714.6 1663.73C8703.16 1675.17 8689.2 1680.89 8672.73 1680.89C8656.25 1680.89 8642.29 1675.17 8630.87 1663.73C8619.43 1652.31 8613.71 1638.35 8613.71 1621.88C8613.71 1605.4 8619.43 1591.44 8630.87 1580C8642.29 1568.58 8656.25 1562.86 8672.73 1562.86C8689.2 1562.86 8703.16 1568.58 8714.6 1580C8726.03 1591.44 8731.75 1605.4 8731.75 1621.88C8731.75 1638.35 8726.03 1652.31 8714.6 1663.73Z" fill="black"/>
<path d="M8880.55 1661.21C8884.89 1661.21 8888.53 1659.67 8891.53 1656.57C8894.5 1653.49 8895.99 1649.72 8895.99 1645.27C8895.99 1640.84 8894.5 1637.07 8891.53 1633.98C8888.53 1630.89 8884.89 1629.35 8880.55 1629.35H8850.46V1661.21H8880.55ZM8876.97 1582.52H8850.46V1612.43H8876.97C8881.09 1612.43 8884.56 1611 8887.38 1608.12C8890.2 1605.25 8891.61 1601.71 8891.61 1597.48C8891.61 1593.25 8890.2 1589.7 8887.38 1586.83C8884.56 1583.96 8881.09 1582.52 8876.97 1582.52ZM8898.75 1619.75C8903.74 1622.35 8907.64 1625.93 8910.46 1630.47C8913.28 1635.04 8914.69 1640.3 8914.69 1646.25C8914.69 1655.57 8911.38 1663.32 8904.77 1669.49C8898.16 1675.67 8890.08 1678.76 8880.55 1678.76H8831.77V1564.97H8876.97C8886.3 1564.97 8894.17 1567.96 8900.62 1573.98C8907.07 1580 8910.3 1587.51 8910.3 1596.49C8910.3 1606.36 8906.45 1614.11 8898.75 1619.75Z" fill="black"/>
<path d="M8970.75 1582.52V1620.56H8997.57C9002.56 1620.56 9006.79 1618.72 9010.26 1615.04C9013.73 1611.35 9015.46 1606.85 9015.46 1601.55C9015.46 1596.24 9013.73 1591.74 9010.26 1588.05C9006.79 1584.36 9002.56 1582.52 8997.57 1582.52H8970.75ZM9016.93 1678.76L8992.88 1637.3H8970.75V1678.76H8952.05V1564.97H8997.57C9007.76 1564.97 9016.41 1568.52 9023.5 1575.61C9030.6 1582.71 9034.15 1591.36 9034.15 1601.55C9034.15 1608.8 9032.07 1615.44 9027.89 1621.46C9023.72 1627.48 9018.28 1631.84 9011.56 1634.55L9037.41 1678.76H9016.93Z" fill="black"/>
<path d="M9096.72 1638.28H9132.77L9114.79 1586.91L9096.72 1638.28ZM9146.95 1678.76L9138.92 1655.84H9090.52L9082.57 1678.76H9062.24L9103.54 1564.97H9125.98L9167.12 1678.76H9146.95Z" fill="black"/>
<path d="M9235.41 1680.89C9224.47 1680.89 9215.17 1678.4 9207.53 1673.41C9199.89 1668.42 9194.56 1661.59 9191.51 1652.93L9207.61 1643.5C9212.16 1656.28 9221.6 1662.69 9235.9 1662.69C9242.95 1662.69 9248.23 1661.31 9251.75 1658.55C9255.28 1655.79 9257.04 1652.2 9257.04 1647.76C9257.04 1643.12 9255.14 1639.57 9251.33 1637.15C9247.53 1634.71 9240.81 1632.03 9231.15 1629.12C9225.86 1627.15 9221.5 1625.54 9218.1 1624.27C9214.67 1623 9211.11 1621.08 9207.37 1618.53C9203.63 1616 9200.83 1612.83 9198.99 1609.03C9197.15 1605.24 9196.23 1600.79 9196.23 1595.69C9196.23 1585.61 9199.8 1577.63 9206.96 1571.72C9214.12 1565.81 9222.72 1562.85 9232.81 1562.85C9241.92 1562.85 9249.88 1565.08 9256.7 1569.52C9263.53 1573.97 9268.79 1580.08 9272.48 1587.89L9256.7 1597C9251.94 1586.37 9243.97 1581.07 9232.81 1581.07C9227.4 1581.07 9223.06 1582.33 9219.81 1584.88C9216.56 1587.43 9214.93 1590.87 9214.93 1595.21C9214.93 1599.35 9216.59 1602.61 9219.92 1605C9223.23 1607.4 9229.27 1609.91 9237.98 1612.56C9242.24 1614.16 9245.35 1615.35 9247.33 1616.08C9249.31 1616.82 9252.14 1617.9 9255.83 1619.29C9259.52 1620.69 9262.3 1622.14 9264.12 1623.68C9265.96 1625.22 9267.9 1627.15 9270.01 1629.45C9272.1 1631.76 9273.58 1634.39 9274.45 1637.35C9275.3 1640.32 9275.73 1643.66 9275.73 1647.4C9275.73 1657.69 9272.02 1665.85 9264.59 1671.86C9257.16 1677.88 9247.44 1680.89 9235.41 1680.89Z" fill="black"/>
<path d="M9312.11 1564.95H9330.8V1678.76H9312.11V1564.95Z" fill="black"/>
<path d="M9393.39 1660.88H9439.73V1678.76H9374.69V1564.95H9393.39V1660.88Z" fill="black"/>
<path d="M9493.43 1660.88H9543.83V1678.76H9474.74V1564.95H9543.02V1582.84H9493.43V1612.43H9538.96V1630.14H9493.43V1660.88Z" fill="black"/>
<path d="M9582 1564.95H9600.7V1678.76H9582V1564.95Z" fill="black"/>
<path d="M9663.28 1582.52V1620.56H9690.1C9695.09 1620.56 9699.32 1618.72 9702.79 1615.04C9706.26 1611.35 9707.98 1606.85 9707.98 1601.55C9707.98 1596.24 9706.26 1591.74 9702.79 1588.05C9699.32 1584.36 9695.09 1582.52 9690.1 1582.52H9663.28ZM9709.46 1678.76L9685.41 1637.3H9663.28V1678.76H9644.58V1564.97H9690.1C9700.29 1564.97 9708.93 1568.52 9716.03 1575.61C9723.13 1582.71 9726.68 1591.36 9726.68 1601.55C9726.68 1608.8 9724.6 1615.44 9720.42 1621.46C9716.25 1627.48 9710.8 1631.84 9704.09 1634.55L9729.94 1678.76H9709.46Z" fill="black"/>
<path d="M9789.25 1651.06C9796.99 1658.8 9806.56 1662.69 9817.94 1662.69C9829.33 1662.69 9838.88 1658.8 9846.64 1651.06C9854.39 1643.31 9858.26 1633.58 9858.26 1621.88C9858.26 1610.17 9854.39 1600.44 9846.64 1592.69C9838.88 1584.95 9829.33 1581.07 9817.94 1581.07C9806.56 1581.07 9796.99 1584.95 9789.25 1592.69C9781.5 1600.44 9777.62 1610.17 9777.62 1621.88C9777.62 1633.58 9781.5 1643.31 9789.25 1651.06ZM9859.81 1663.73C9848.37 1675.17 9834.41 1680.89 9817.94 1680.89C9801.46 1680.89 9787.51 1675.17 9776.08 1663.73C9764.64 1652.31 9758.93 1638.35 9758.93 1621.88C9758.93 1605.4 9764.64 1591.44 9776.08 1580C9787.51 1568.58 9801.46 1562.86 9817.94 1562.86C9834.41 1562.86 9848.37 1568.58 9859.81 1580C9871.25 1591.44 9876.97 1605.4 9876.97 1621.88C9876.97 1638.35 9871.25 1652.31 9859.81 1663.73Z" fill="black"/>
<path d="M7652.66 342.344V354.067C7652.66 400.944 7621.26 431.472 7579.68 431.472C7535.45 431.472 7500.72 396.967 7500.72 352.958C7500.72 308.948 7535.67 274 7579.46 274C7607.1 274 7632.54 288.163 7646.47 311.388L7611.96 331.951C7605.33 320.006 7593.18 313.146 7579.01 313.146C7556.9 313.146 7541.2 330.177 7541.2 353.18C7541.2 375.739 7556.9 392.104 7579.68 392.104C7595.6 392.104 7605.77 384.151 7609.32 374.408H7568.84V342.344H7652.66Z" fill="black"/>
<path d="M7816.68 352.736C7816.68 331.507 7801.42 315.57 7781.73 315.57C7761.61 315.57 7746.13 331.507 7746.13 352.736C7746.13 373.965 7761.61 389.886 7781.73 389.886C7801.42 389.886 7816.68 373.965 7816.68 352.736ZM7702.79 352.736C7702.79 308.948 7737.72 274 7781.73 274C7825.3 274 7860.24 308.948 7860.24 352.736C7860.24 396.524 7825.3 431.472 7781.73 431.472C7737.72 431.472 7702.79 396.524 7702.79 352.736Z" fill="black"/>
<path d="M8050.35 277.61L7991.53 428H7951.05L7892.88 277.61H7936.46L7971.39 370.271L8006.78 277.61H8050.35Z" fill="black"/>
<path d="M8138.3 314.316V336.653H8182.53V368.94H8138.3V391.277H8205.31V428H8097.6V277.61H8205.31V314.316H8138.3Z" fill="black"/>
<path d="M8302.27 341.755H8330.58C8340.08 341.755 8346.05 335.117 8346.05 327.829C8346.05 320.304 8340.3 313.666 8330.58 313.666H8302.27V341.755ZM8319.3 376.037H8302.27V428H8262.23V277.61H8335C8364.41 277.61 8386.97 298.632 8386.97 326.499C8386.97 345.731 8376.58 361.652 8360.64 370.065L8394.04 428H8349.14L8319.3 376.037Z" fill="black"/>
<path d="M8579.07 277.61V428H8544.79L8484.19 348.82V428H8444.16V277.61H8478.22L8539.04 356.995V277.61H8579.07Z" fill="black"/>
<path d="M8745.67 352.736C8745.67 331.507 8730.41 315.57 8710.72 315.57C8690.6 315.57 8675.13 331.507 8675.13 352.736C8675.13 373.965 8690.6 389.886 8710.72 389.886C8730.41 389.886 8745.67 373.965 8745.67 352.736ZM8631.78 352.736C8631.78 308.948 8666.71 274 8710.72 274C8754.3 274 8789.24 308.948 8789.24 352.736C8789.24 396.524 8754.3 431.472 8710.72 431.472C8666.71 431.472 8631.78 396.524 8631.78 352.736Z" fill="black"/>
<path d="M9081.33 352.812C9081.33 330.919 9064.97 316.756 9041.08 316.756H9022.73V388.853H9041.08C9064.97 388.853 9081.33 374.706 9081.33 352.812ZM9123.35 352.812C9123.35 395.935 9088.84 428 9043.07 428H8981.81V277.61H9043.07C9088.84 277.61 9123.35 309.69 9123.35 352.812Z" fill="black"/>
<path d="M9274 352.736C9274 331.507 9258.75 315.57 9239.05 315.57C9218.94 315.57 9203.46 331.507 9203.46 352.736C9203.46 373.965 9218.94 389.886 9239.05 389.886C9258.75 389.886 9274 373.965 9274 352.736ZM9160.11 352.736C9160.11 308.948 9195.05 274 9239.05 274C9282.64 274 9317.57 308.948 9317.57 352.736C9317.57 396.524 9282.64 431.472 9239.05 431.472C9195.05 431.472 9160.11 396.524 9160.11 352.736Z" fill="black"/>
<path d="M8565.65 1388.72V1158.25L8231.68 596.708L7778.25 1359.08L7832.27 1268.26L7910.58 1388.72H7760.61H7942.74C7942.74 1229.14 8072.1 1099.78 8231.68 1099.78C8391.24 1099.78 8520.61 1229.14 8520.61 1388.72H8702.73H8565.65Z" fill="#FFD100"/>
<path d="M8520.61 1388.72C8520.61 1229.14 8391.24 1099.78 8231.66 1099.78C8072.08 1099.78 7942.73 1229.14 7942.73 1388.72H8520.61Z" fill="#003CFF"/>
<path d="M7706.54 1074.92L7395.75 596.568V1074.92H7706.54Z" fill="#FFD100"/>
<path d="M7068.63 1388.73H6794.76V914.49H7068.63V1388.73Z" fill="#FFD100"/>
<path d="M9760.94 596.643H9487.08V1122.65H9760.94V596.643Z" fill="#FFD100"/>
<path d="M9760.96 1388.73H10034.8V1122.7H9760.96V1388.73Z" fill="#003CFF"/>
<path d="M7760.6 1388.72L7832.22 1268.29L7706.54 1075.06H7395.75V1388.72H7760.6Z" fill="#00D100"/>
<path d="M9440.91 596.712H9167.05V1388.73H9440.91V596.712Z" fill="#00D100"/>
<path d="M7132.08 596.571H7068.66V914.349H7132.08C7219.83 914.349 7290.98 843.218 7290.98 755.468C7290.98 667.702 7219.83 596.571 7132.08 596.571Z" fill="#003CFF"/>
<path d="M9120.81 596.777H8824.53V884.788H9120.81V596.777Z" fill="#003CFF"/>
<path d="M8915 884.703H8824.53V1388.72H8915C9054.17 1388.72 9167 1275.89 9167 1136.71C9167 997.531 9054.17 884.703 8915 884.703Z" fill="#FFD100"/>
<path d="M8741.61 596.75C8644.4 596.75 8565.6 675.549 8565.6 772.757C8565.6 869.948 8644.4 948.748 8741.61 948.748H8824.49V596.75H8741.61Z" fill="#00D100"/>
<path d="M7158.7 914.487H7068.66V1388.72H7158.7C7289.65 1388.72 7395.82 1282.56 7395.82 1151.61C7395.82 1020.65 7289.65 914.487 7158.7 914.487Z" fill="#FF0000"/>
<path d="M7706.54 596.568H7395.75L7706.54 1074.92C7838.63 1074.92 7945.73 967.846 7945.73 835.754C7945.73 703.646 7838.63 596.568 7706.54 596.568Z" fill="#003CFF"/>
<path d="M7068.63 596.573H6794.76V914.352H7068.63V596.573Z" fill="#00D100"/>
<path d="M8565.6 948.706V1158.25L8702.68 1388.72H8824.49V948.706H8565.6Z" fill="#FF0000"/>
<path d="M8565.6 1158.23V1388.72H8702.68L8565.6 1158.23Z" fill="#393939"/>
<path d="M9487.08 1388.73H9760.94V1122.7H9487.08V1388.73Z" fill="#393939"/>
<path d="M7760.61 1388.72H7910.56L7832.27 1268.26L7760.61 1388.72Z" fill="#393939"/>
<path d="M1375.79 1038.63V587.849H1444.26V979.855H1636.56V1038.63H1375.79Z" fill="#005EA1"/>
<path d="M2054.97 1038.63H1972.23L1744.56 674.581H1742.28C1742.85 685.422 1743.99 697.975 1744.56 711.099C1745.13 724.794 1745.7 738.488 1746.27 753.324C1746.84 768.16 1747.41 782.996 1747.41 798.973V1038.63H1685.79V587.848H1767.96L1995.06 950.183H1996.77C1996.2 941.624 1996.2 930.212 1995.63 916.517C1995.06 902.823 1994.49 888.558 1993.92 873.151C1993.35 857.745 1992.77 843.48 1992.2 829.785V587.278H2055.54V1038.63H2054.97Z" fill="#005EA1"/>
<path d="M2318.58 640.344C2296.33 640.344 2276.36 644.339 2258.67 651.757C2240.98 659.745 2226.15 671.157 2213.59 685.993C2201.04 701.399 2191.91 719.659 2185.06 740.771C2178.79 762.454 2175.36 786.42 2175.36 813.238C2175.36 848.616 2180.5 879.428 2191.34 905.106C2201.61 930.783 2217.59 950.754 2238.7 965.019C2259.81 978.714 2286.06 986.132 2318.01 986.132C2337.41 986.132 2356.25 984.42 2373.93 980.996C2391.62 977.573 2409.88 972.437 2428.71 966.731V1025.5C2411.02 1032.35 2392.76 1036.92 2374.5 1040.34C2356.24 1043.76 2334.56 1044.9 2310.03 1044.9C2264.38 1044.9 2226.15 1035.2 2195.33 1016.37C2165.09 997.544 2142.27 970.725 2126.86 935.348C2111.45 900.541 2104.04 859.457 2104.04 812.667C2104.04 778.431 2108.6 747.618 2118.3 719.088C2128 690.558 2141.7 666.022 2159.39 645.48C2177.65 624.938 2199.9 608.961 2226.72 597.549C2253.54 586.137 2284.35 581.001 2319.16 581.001C2341.98 581.001 2364.23 583.284 2385.92 588.419C2407.6 592.984 2427.57 599.831 2445.26 608.961L2420.15 666.022C2405.32 659.174 2389.34 653.468 2372.22 647.762C2355.67 642.627 2337.41 640.344 2318.58 640.344Z" fill="#005EA1"/>
<path d="M2692.33 640.344C2670.08 640.344 2650.11 644.339 2632.42 651.757C2614.73 659.745 2599.89 671.157 2587.34 685.993C2574.79 701.399 2565.66 719.659 2558.81 740.771C2552.53 762.454 2549.11 786.42 2549.11 813.238C2549.11 848.616 2554.24 879.428 2565.09 905.106C2575.36 930.783 2591.33 950.754 2612.45 965.019C2633.56 978.714 2659.81 986.132 2691.76 986.132C2711.16 986.132 2729.99 984.42 2747.68 980.996C2765.37 977.573 2783.63 972.437 2802.46 966.731V1025.5C2784.77 1032.35 2766.51 1036.92 2748.25 1040.34C2729.99 1043.76 2708.31 1044.9 2683.77 1044.9C2638.12 1044.9 2599.89 1035.2 2569.08 1016.37C2538.84 997.544 2516.01 970.725 2500.61 935.348C2485.2 900.541 2477.78 859.457 2477.78 812.667C2477.78 778.431 2482.35 747.618 2492.05 719.088C2501.75 690.558 2515.44 666.022 2533.13 645.48C2551.39 624.938 2573.65 608.961 2600.46 597.549C2627.28 586.137 2658.09 581.001 2692.9 581.001C2715.73 581.001 2737.98 583.284 2759.66 588.419C2781.35 592.984 2801.32 599.831 2819.01 608.961L2793.9 666.022C2779.06 659.174 2763.09 653.468 2745.97 647.762C2728.85 643.197 2711.16 640.344 2692.33 640.344Z" fill="#005EA1"/>
<path d="M1374.24 1184.7V1088.27H1391.35V1170.44H1431.87V1185.27H1374.24V1184.7Z" fill="#005EA1"/>
<path d="M1477.52 1109.95C1487.22 1109.95 1494.07 1112.24 1499.2 1116.23C1504.34 1120.23 1506.62 1126.5 1506.62 1135.63V1184.7H1494.64L1491.21 1174.43H1490.64C1488.36 1177.29 1486.65 1179 1484.37 1181.28C1482.08 1182.99 1479.8 1184.13 1476.95 1185.27C1474.1 1186.42 1470.67 1186.42 1466.68 1186.42C1462.11 1186.42 1458.69 1185.84 1454.7 1184.13C1451.27 1182.42 1448.42 1180.14 1446.71 1176.71C1444.99 1173.29 1443.85 1169.3 1443.85 1164.16C1443.85 1156.74 1446.71 1151.04 1452.41 1147.04C1458.12 1143.05 1466.11 1141.34 1477.52 1140.77L1490.07 1140.2V1136.77C1490.07 1132.21 1488.93 1128.78 1486.65 1126.5C1484.37 1124.79 1481.51 1123.65 1476.95 1123.65C1473.53 1123.65 1469.53 1124.22 1466.11 1125.36C1462.68 1126.5 1459.26 1127.64 1455.84 1129.35L1450.7 1117.37C1454.12 1115.66 1458.69 1113.95 1463.25 1112.81C1467.82 1110.52 1472.38 1109.95 1477.52 1109.95ZM1480.94 1149.9C1473.53 1149.9 1468.39 1151.61 1465.54 1153.89C1462.68 1156.17 1460.97 1159.03 1460.97 1163.02C1460.97 1166.44 1462.11 1168.73 1463.82 1170.44C1466.11 1172.15 1468.39 1172.72 1471.81 1172.72C1476.95 1172.72 1480.94 1171.58 1484.37 1168.73C1487.79 1165.87 1489.5 1161.88 1489.5 1156.17V1149.9H1480.94Z" fill="#005EA1"/>
<path d="M1535.15 1105.96C1535.15 1108.81 1535.15 1111.66 1535.15 1114.52C1535.15 1117.37 1534.58 1119.08 1534.58 1120.79H1535.15C1536.86 1117.94 1539.71 1115.09 1543.14 1112.81C1546.56 1110.52 1551.12 1109.38 1556.26 1109.38C1564.82 1109.38 1571.67 1112.81 1576.8 1119.08C1581.94 1125.36 1584.79 1135.06 1584.79 1147.61C1584.79 1156.17 1583.65 1163.02 1581.37 1168.72C1579.08 1174.43 1575.66 1178.42 1571.1 1181.28C1566.53 1184.13 1561.4 1185.27 1555.69 1185.27C1549.98 1185.27 1545.99 1184.13 1542.57 1182.42C1539.14 1180.71 1536.86 1177.85 1534.58 1175.57H1533.44L1530.58 1184.13H1518.03V1081.42H1535.15V1105.96ZM1551.7 1123.65C1547.7 1123.65 1544.28 1124.22 1541.99 1125.93C1539.71 1127.64 1538 1129.92 1536.86 1133.35C1535.72 1136.77 1535.15 1140.76 1535.15 1145.9V1147.61C1535.15 1155.6 1536.29 1161.31 1538.57 1165.87C1540.85 1169.87 1545.42 1172.15 1551.7 1172.15C1556.83 1172.15 1560.82 1169.87 1563.11 1165.87C1565.96 1161.88 1567.1 1155.6 1567.1 1147.61C1567.1 1139.62 1565.96 1133.92 1563.11 1129.92C1560.82 1125.36 1556.83 1123.65 1551.7 1123.65Z" fill="#005EA1"/>
<path d="M1664.67 1147.61C1664.67 1153.89 1664.1 1159.03 1662.39 1163.59C1660.68 1168.16 1658.4 1172.15 1655.54 1175.57C1652.69 1179 1648.7 1181.28 1644.7 1182.99C1640.14 1184.7 1635.57 1185.27 1629.87 1185.27C1624.73 1185.27 1620.17 1184.7 1616.17 1182.99C1612.18 1181.28 1608.18 1179 1605.33 1175.57C1602.48 1172.15 1599.63 1168.16 1597.91 1163.59C1596.2 1159.03 1595.06 1153.32 1595.06 1147.61C1595.06 1139.63 1596.2 1132.78 1599.05 1127.07C1601.91 1121.37 1605.9 1117.37 1611.04 1113.95C1616.17 1111.1 1622.45 1109.38 1629.87 1109.38C1636.71 1109.38 1642.99 1111.1 1648.13 1113.95C1653.26 1116.8 1657.26 1121.37 1660.11 1127.07C1663.53 1132.78 1664.67 1139.63 1664.67 1147.61ZM1612.18 1147.61C1612.18 1152.75 1612.75 1157.31 1613.89 1160.74C1615.03 1164.16 1616.74 1167.01 1619.6 1169.3C1622.45 1171.01 1625.3 1172.15 1629.3 1172.15C1633.29 1172.15 1636.71 1171.01 1639.57 1169.3C1642.42 1167.59 1644.13 1164.73 1645.27 1160.74C1646.42 1157.31 1646.99 1152.75 1646.99 1147.61C1646.99 1142.48 1646.42 1137.91 1645.27 1134.49C1644.13 1131.07 1642.42 1128.21 1639.57 1126.5C1636.71 1124.79 1633.86 1123.65 1629.87 1123.65C1623.59 1123.65 1619.03 1125.93 1616.74 1129.93C1613.89 1133.92 1612.18 1140.2 1612.18 1147.61Z" fill="#005EA1"/>
<path d="M1713.18 1109.95C1714.32 1109.95 1715.46 1109.95 1717.17 1109.95C1718.88 1109.95 1720.02 1109.95 1720.59 1110.52L1718.88 1126.5C1718.31 1126.5 1717.17 1125.93 1715.46 1125.93C1714.32 1125.93 1713.18 1125.93 1712.04 1125.93C1709.18 1125.93 1706.9 1126.5 1704.05 1127.07C1701.76 1128.21 1699.48 1129.35 1697.2 1131.07C1695.49 1132.78 1693.78 1135.06 1692.63 1137.34C1691.49 1140.2 1690.92 1143.05 1690.92 1146.47V1184.7H1673.8V1111.1H1686.93L1689.21 1123.65H1689.78C1691.49 1120.8 1693.21 1118.51 1694.92 1116.8C1697.2 1114.52 1699.48 1112.81 1702.33 1111.67C1706.9 1110.52 1709.75 1109.95 1713.18 1109.95Z" fill="#005EA1"/>
<path d="M1758.83 1109.95C1768.53 1109.95 1775.38 1112.24 1780.51 1116.23C1785.65 1120.23 1787.93 1126.5 1787.93 1135.63V1184.7H1775.95L1772.52 1174.43H1771.95C1769.67 1177.29 1767.96 1179 1765.68 1181.28C1763.39 1182.99 1761.11 1184.13 1758.26 1185.27C1755.4 1185.84 1751.98 1186.42 1747.99 1186.42C1743.42 1186.42 1740 1185.84 1736 1184.13C1732.58 1182.42 1729.73 1180.14 1728.02 1176.71C1726.3 1173.29 1725.16 1169.3 1725.16 1164.16C1725.16 1156.74 1728.02 1151.04 1733.72 1147.04C1739.43 1143.05 1747.42 1141.34 1758.83 1140.77L1771.38 1140.2V1136.77C1771.38 1132.21 1770.24 1128.78 1767.96 1126.5C1765.68 1124.79 1762.82 1123.65 1758.26 1123.65C1754.83 1123.65 1750.84 1124.22 1747.42 1125.36C1743.99 1126.5 1740.57 1127.64 1737.14 1129.35L1732.01 1117.37C1735.43 1115.66 1740 1113.95 1744.56 1112.81C1749.13 1110.52 1753.69 1109.95 1758.83 1109.95ZM1762.25 1149.9C1754.83 1149.9 1749.7 1151.61 1746.85 1153.89C1743.99 1156.17 1742.28 1159.03 1742.28 1163.02C1742.28 1166.44 1743.42 1168.73 1745.13 1170.44C1747.42 1172.15 1749.7 1172.72 1753.12 1172.72C1758.26 1172.72 1762.25 1171.58 1765.68 1168.73C1769.1 1165.87 1770.81 1161.88 1770.81 1156.17V1149.9H1762.25Z" fill="#005EA1"/>
<path d="M1833 1172.15C1835.29 1172.15 1837 1172.15 1839.28 1171.58C1840.99 1171.01 1843.27 1170.44 1844.99 1170.44V1182.99C1843.27 1183.56 1840.99 1184.7 1838.14 1185.27C1835.29 1185.85 1832.43 1186.42 1829.01 1186.42C1825.01 1186.42 1821.02 1185.85 1817.6 1184.13C1814.17 1182.42 1811.32 1180.14 1809.61 1176.72C1807.33 1173.29 1806.76 1168.73 1806.76 1162.45V1124.22H1796.48V1116.8L1807.33 1111.1L1812.46 1095.69H1823.3V1111.67H1844.42V1124.79H1823.3V1163.02C1823.3 1166.44 1824.44 1168.73 1826.16 1170.44C1827.87 1171.58 1830.15 1172.15 1833 1172.15Z" fill="#005EA1"/>
<path d="M1923.16 1147.61C1923.16 1153.89 1922.59 1159.03 1920.88 1163.59C1919.17 1168.16 1916.89 1172.15 1914.03 1175.57C1911.18 1179 1907.19 1181.28 1903.19 1182.99C1898.63 1184.7 1894.06 1185.27 1888.36 1185.27C1883.22 1185.27 1878.66 1184.7 1874.66 1182.99C1870.67 1181.28 1866.67 1179 1863.82 1175.57C1860.97 1172.15 1858.11 1168.16 1856.4 1163.59C1854.69 1159.03 1853.55 1153.32 1853.55 1147.61C1853.55 1139.63 1854.69 1132.78 1857.54 1127.07C1860.4 1121.37 1864.39 1117.37 1869.53 1113.95C1874.66 1111.1 1880.94 1109.38 1888.36 1109.38C1895.2 1109.38 1901.48 1111.1 1906.62 1113.95C1911.75 1116.8 1915.74 1121.37 1918.6 1127.07C1921.45 1132.78 1923.16 1139.63 1923.16 1147.61ZM1870.67 1147.61C1870.67 1152.75 1871.24 1157.32 1872.38 1160.74C1873.52 1164.16 1875.23 1167.02 1878.08 1169.3C1880.94 1171.01 1883.79 1172.15 1887.79 1172.15C1891.78 1172.15 1895.2 1171.01 1898.06 1169.3C1900.91 1167.59 1902.62 1164.73 1903.76 1160.74C1904.9 1157.32 1905.47 1152.75 1905.47 1147.61C1905.47 1142.48 1904.9 1137.91 1903.76 1134.49C1902.62 1131.07 1900.91 1128.21 1898.06 1126.5C1895.2 1124.79 1892.35 1123.65 1888.36 1123.65C1882.08 1123.65 1877.51 1125.93 1875.23 1129.93C1871.81 1133.92 1870.67 1140.2 1870.67 1147.61ZM1913.46 1082C1912.32 1083.14 1911.18 1084.85 1908.9 1086.56C1907.19 1088.27 1904.9 1089.98 1902.62 1092.27C1900.34 1093.98 1898.06 1096.26 1896.34 1097.97C1894.06 1099.68 1892.35 1101.4 1890.64 1102.54H1879.23V1100.83C1880.94 1099.11 1882.08 1096.83 1884.36 1094.55C1886.07 1092.27 1887.79 1089.98 1889.5 1087.13C1891.21 1084.85 1892.92 1082.57 1893.49 1080.28H1912.89V1082H1913.46Z" fill="#005EA1"/>
<path d="M1970.52 1109.95C1971.66 1109.95 1972.8 1109.95 1974.51 1109.95C1976.23 1109.95 1977.37 1109.95 1977.94 1110.52L1976.23 1126.5C1975.66 1126.5 1974.51 1125.93 1972.8 1125.93C1971.66 1125.93 1970.52 1125.93 1969.38 1125.93C1966.53 1125.93 1964.24 1126.5 1961.39 1127.07C1959.11 1128.21 1956.83 1129.35 1954.54 1131.07C1952.83 1132.78 1951.12 1135.06 1949.98 1137.34C1948.84 1140.2 1948.27 1143.05 1948.27 1146.47V1184.7H1931.15V1111.1H1944.27L1946.55 1123.65H1947.13C1948.84 1120.8 1950.55 1118.51 1952.26 1116.8C1954.54 1114.52 1956.83 1112.81 1959.68 1111.67C1964.24 1110.52 1967.1 1109.95 1970.52 1109.95Z" fill="#005EA1"/>
<path d="M1996.2 1083.14C1998.48 1083.14 2000.76 1083.71 2003.04 1084.85C2004.76 1085.99 2005.9 1088.27 2005.9 1091.7C2005.9 1095.12 2004.76 1097.4 2003.04 1098.54C2001.33 1099.68 1999.05 1100.83 1996.2 1100.83C1993.34 1100.83 1991.06 1100.25 1989.35 1098.54C1987.64 1097.4 1986.5 1094.55 1986.5 1091.7C1986.5 1088.27 1987.64 1085.99 1989.35 1084.85C1991.63 1083.71 1993.91 1083.14 1996.2 1083.14ZM2004.76 1111.1V1184.7H1987.64V1111.1H2004.76Z" fill="#005EA1"/>
<path d="M2086.92 1147.61C2086.92 1153.89 2086.35 1159.03 2084.64 1163.59C2082.93 1168.16 2080.65 1172.15 2077.79 1175.57C2074.94 1179 2070.95 1181.28 2066.95 1182.99C2062.39 1184.7 2057.82 1185.27 2052.12 1185.27C2046.98 1185.27 2042.42 1184.7 2038.42 1182.99C2034.43 1181.28 2030.43 1179 2027.58 1175.57C2024.73 1172.15 2021.87 1168.16 2020.16 1163.59C2018.45 1159.03 2017.31 1153.32 2017.31 1147.61C2017.31 1139.63 2018.45 1132.78 2021.3 1127.07C2024.16 1121.37 2028.15 1117.37 2033.29 1113.95C2038.42 1111.1 2044.7 1109.38 2052.12 1109.38C2058.96 1109.38 2065.24 1111.1 2070.37 1113.95C2075.51 1116.8 2079.5 1121.37 2082.36 1127.07C2085.21 1132.78 2086.92 1139.63 2086.92 1147.61ZM2034.43 1147.61C2034.43 1152.75 2035 1157.31 2036.14 1160.74C2037.28 1164.16 2038.99 1167.01 2041.84 1169.3C2044.7 1171.01 2047.55 1172.15 2051.54 1172.15C2055.54 1172.15 2058.96 1171.01 2061.82 1169.3C2064.67 1167.59 2066.38 1164.73 2067.52 1160.74C2068.66 1157.31 2069.23 1152.75 2069.23 1147.61C2069.23 1142.48 2068.66 1137.91 2067.52 1134.49C2066.38 1131.07 2064.67 1128.21 2061.82 1126.5C2058.96 1124.79 2056.11 1123.65 2052.12 1123.65C2045.84 1123.65 2041.27 1125.93 2038.99 1129.93C2035.57 1133.92 2034.43 1140.2 2034.43 1147.61Z" fill="#005EA1"/>
<path d="M2207.33 1184.7H2185.64L2139.99 1108.81H2139.42C2139.42 1111.67 2139.99 1114.52 2139.99 1117.37C2139.99 1120.22 2139.99 1123.65 2140.56 1126.5C2140.56 1129.35 2140.56 1132.78 2141.13 1135.63V1184.13H2125.73V1087.7H2147.41L2193.06 1163.02H2193.63C2193.63 1160.74 2193.63 1157.88 2193.63 1155.03C2193.63 1152.18 2193.63 1148.76 2193.06 1145.9C2193.06 1143.05 2193.06 1139.63 2192.49 1136.77V1087.7H2208.47V1184.7H2207.33Z" fill="#005EA1"/>
<path d="M2250.11 1109.95C2259.82 1109.95 2266.66 1112.24 2271.8 1116.23C2276.93 1120.23 2279.22 1126.5 2279.22 1135.63V1184.7H2267.23L2263.81 1174.43H2263.24C2260.96 1177.29 2259.24 1179 2256.96 1181.28C2254.68 1182.99 2252.4 1184.13 2249.54 1185.27C2246.69 1185.84 2243.27 1186.42 2239.27 1186.42C2234.71 1186.42 2231.28 1185.84 2227.29 1184.13C2223.87 1182.42 2221.01 1180.14 2219.3 1176.71C2217.59 1173.29 2216.45 1169.3 2216.45 1164.16C2216.45 1156.74 2219.3 1151.04 2225.01 1147.04C2230.71 1143.05 2238.7 1141.34 2250.11 1140.77L2262.67 1140.2V1136.77C2262.67 1132.21 2261.53 1128.78 2259.24 1126.5C2256.96 1124.79 2254.11 1123.65 2249.54 1123.65C2246.12 1123.65 2242.13 1124.22 2238.7 1125.36C2235.28 1126.5 2231.86 1127.64 2228.43 1129.35L2223.3 1117.37C2226.72 1115.66 2231.28 1113.95 2235.85 1112.81C2240.41 1110.52 2244.98 1109.95 2250.11 1109.95ZM2253.54 1149.9C2246.12 1149.9 2240.99 1151.61 2238.13 1153.89C2235.28 1156.17 2233.57 1159.03 2233.57 1163.02C2233.57 1166.44 2234.71 1168.73 2236.42 1170.44C2238.7 1172.15 2240.99 1172.72 2244.41 1172.72C2249.54 1172.72 2253.54 1171.58 2256.96 1168.73C2260.39 1165.87 2262.1 1161.88 2262.1 1156.17V1149.9H2253.54Z" fill="#005EA1"/>
<path d="M2321.44 1185.84C2314.59 1185.84 2308.32 1184.7 2303.18 1181.85C2298.04 1179 2294.05 1175 2291.2 1169.3C2288.34 1163.59 2287.2 1156.74 2287.2 1148.18C2287.2 1139.05 2288.91 1131.64 2291.77 1125.93C2294.62 1120.22 2299.19 1116.23 2304.32 1113.38C2309.46 1110.52 2315.73 1109.38 2322.58 1109.38C2327.15 1109.38 2331.14 1109.95 2335.13 1110.52C2338.56 1111.67 2341.98 1112.24 2344.26 1113.95L2339.13 1127.07C2336.28 1125.93 2333.42 1124.79 2330.57 1124.22C2327.72 1123.65 2324.86 1123.08 2322.58 1123.08C2318.59 1123.08 2315.16 1124.22 2312.31 1125.93C2309.46 1127.64 2307.74 1130.5 2306.6 1133.92C2305.46 1137.34 2304.89 1141.91 2304.89 1147.61C2304.89 1152.75 2305.46 1157.31 2306.6 1160.74C2307.74 1164.16 2310.03 1167.01 2312.31 1168.73C2315.16 1170.44 2318.02 1171.58 2322.01 1171.58C2326 1171.58 2330 1171.01 2332.85 1169.87C2336.28 1168.73 2339.13 1167.59 2341.98 1165.87V1180.71C2339.13 1182.42 2336.28 1183.56 2332.85 1184.7C2330.57 1185.27 2326.57 1185.84 2321.44 1185.84Z" fill="#005EA1"/>
<path d="M2359.67 1083.14C2361.96 1083.14 2364.24 1083.71 2366.52 1084.85C2368.23 1085.99 2369.38 1088.27 2369.38 1091.7C2369.38 1095.12 2368.23 1097.4 2366.52 1098.54C2364.81 1099.68 2362.53 1100.83 2359.67 1100.83C2356.82 1100.83 2354.54 1100.25 2352.83 1098.54C2351.12 1097.4 2349.97 1094.55 2349.97 1091.7C2349.97 1088.27 2351.12 1085.99 2352.83 1084.85C2355.11 1083.71 2356.82 1083.14 2359.67 1083.14ZM2368.23 1111.1V1184.7H2351.12V1111.1H2368.23Z" fill="#005EA1"/>
<path d="M2446.98 1147.61C2446.98 1153.89 2446.41 1159.03 2444.69 1163.59C2442.98 1168.16 2440.7 1172.15 2437.85 1175.57C2434.99 1179 2431 1181.28 2427.01 1182.99C2422.44 1184.7 2417.88 1185.27 2412.17 1185.27C2407.03 1185.27 2402.47 1184.7 2398.48 1182.99C2394.48 1181.28 2390.49 1179 2387.63 1175.57C2384.78 1172.15 2381.93 1168.16 2380.22 1163.59C2378.5 1159.03 2377.36 1153.32 2377.36 1147.61C2377.36 1139.63 2378.5 1132.78 2381.36 1127.07C2384.21 1121.37 2388.2 1117.37 2393.34 1113.95C2398.48 1111.1 2404.75 1109.38 2412.17 1109.38C2419.02 1109.38 2425.29 1111.1 2430.43 1113.95C2435.57 1116.8 2439.56 1121.37 2442.41 1127.07C2445.27 1132.78 2446.98 1139.63 2446.98 1147.61ZM2394.48 1147.61C2394.48 1152.75 2395.05 1157.31 2396.19 1160.74C2397.33 1164.16 2399.05 1167.01 2401.9 1169.3C2404.75 1171.01 2407.61 1172.15 2411.6 1172.15C2415.59 1172.15 2419.02 1171.01 2421.87 1169.3C2424.72 1167.59 2426.44 1164.73 2427.58 1160.74C2428.72 1157.31 2429.29 1152.75 2429.29 1147.61C2429.29 1142.48 2428.72 1137.91 2427.58 1134.49C2426.44 1131.07 2424.72 1128.21 2421.87 1126.5C2419.02 1124.79 2416.16 1123.65 2412.17 1123.65C2405.89 1123.65 2401.33 1125.93 2399.05 1129.93C2395.62 1133.92 2394.48 1140.2 2394.48 1147.61Z" fill="#005EA1"/>
<path d="M2494.91 1109.95C2502.89 1109.95 2509.74 1112.24 2514.31 1116.23C2518.87 1120.23 2521.15 1127.07 2521.15 1136.77V1184.7H2504.04V1140.2C2504.04 1134.49 2502.89 1130.5 2500.61 1127.64C2498.33 1124.79 2494.91 1123.65 2490.34 1123.65C2483.49 1123.65 2478.93 1125.93 2476.08 1129.93C2473.79 1134.49 2472.08 1140.2 2472.08 1148.76V1184.7H2454.96V1111.1H2468.09L2470.37 1120.8H2471.51C2473.22 1118.51 2474.93 1116.23 2477.22 1114.52C2479.5 1112.81 2482.35 1111.67 2485.21 1111.1C2489.2 1109.95 2492.05 1109.95 2494.91 1109.95Z" fill="#005EA1"/>
<path d="M2563.38 1109.95C2573.08 1109.95 2579.93 1112.24 2585.07 1116.23C2590.2 1120.23 2592.48 1126.5 2592.48 1135.63V1184.7H2580.5L2577.08 1174.43H2576.51C2574.22 1177.29 2572.51 1179 2570.23 1181.28C2567.95 1182.99 2565.66 1184.13 2562.81 1185.27C2559.96 1185.84 2556.54 1186.42 2552.54 1186.42C2547.98 1186.42 2544.55 1185.84 2540.56 1184.13C2537.13 1182.42 2534.28 1180.14 2532.57 1176.71C2530.86 1173.29 2529.72 1169.3 2529.72 1164.16C2529.72 1156.74 2532.57 1151.04 2538.28 1147.04C2543.98 1143.05 2551.97 1141.34 2563.38 1140.77L2575.94 1140.2V1136.77C2575.94 1132.21 2574.79 1128.78 2572.51 1126.5C2570.23 1124.79 2567.38 1123.65 2562.81 1123.65C2559.39 1123.65 2555.39 1124.22 2551.97 1125.36C2548.55 1126.5 2545.12 1127.64 2541.7 1129.35L2536.56 1117.37C2539.99 1115.66 2544.55 1113.95 2549.12 1112.81C2553.68 1110.52 2558.25 1109.95 2563.38 1109.95ZM2566.81 1149.9C2559.39 1149.9 2554.25 1151.61 2551.4 1153.89C2548.55 1156.17 2546.83 1159.03 2546.83 1163.02C2546.83 1166.44 2547.98 1168.73 2549.69 1170.44C2551.97 1172.15 2554.25 1172.72 2557.68 1172.72C2562.81 1172.72 2566.81 1171.58 2570.23 1168.73C2573.65 1165.87 2575.37 1161.88 2575.37 1156.17V1149.9H2566.81Z" fill="#005EA1"/>
<path d="M2622.16 1184.7H2605.04V1081.99H2622.16V1184.7Z" fill="#005EA1"/>
<path d="M2688.34 1185.84C2679.78 1185.84 2672.93 1182.42 2667.8 1176.14C2662.66 1169.87 2659.81 1160.17 2659.81 1147.61C2659.81 1135.06 2662.66 1125.36 2667.8 1119.08C2672.93 1112.8 2680.35 1109.38 2688.91 1109.38C2692.34 1109.38 2695.76 1109.95 2698.61 1110.52C2701.46 1111.66 2703.75 1112.8 2705.46 1114.52C2707.17 1116.23 2708.88 1117.94 2710.59 1119.65H2711.17C2711.17 1118.51 2710.59 1116.23 2710.59 1113.95C2710.59 1111.09 2710.02 1108.81 2710.02 1106.53V1080.85H2727.14V1183.56H2714.02L2711.17 1173.86H2710.59C2709.45 1175.57 2707.74 1177.85 2705.46 1179.57C2703.75 1181.28 2700.89 1182.42 2698.61 1183.56C2695.19 1185.27 2691.76 1185.84 2688.34 1185.84ZM2693.48 1172.15C2699.75 1172.15 2704.32 1170.44 2706.6 1167.01C2709.45 1163.59 2710.59 1157.88 2710.59 1150.46V1148.18C2710.59 1140.19 2709.45 1133.92 2706.6 1129.92C2704.32 1125.93 2699.75 1123.65 2692.91 1123.65C2687.77 1123.65 2683.78 1125.93 2680.92 1129.92C2678.07 1134.49 2676.93 1140.19 2676.93 1148.18C2676.93 1156.17 2678.07 1161.88 2680.92 1165.87C2683.78 1169.87 2688.34 1172.15 2693.48 1172.15Z" fill="#005EA1"/>
<path d="M2773.36 1109.95C2780.21 1109.95 2785.34 1111.1 2790.48 1113.95C2795.04 1116.8 2799.04 1120.22 2801.32 1125.36C2804.17 1130.5 2805.31 1136.2 2805.31 1143.05V1151.61H2756.81C2756.81 1158.46 2759.1 1163.59 2762.52 1167.01C2765.94 1170.44 2771.08 1172.72 2777.36 1172.72C2781.92 1172.72 2786.49 1172.15 2789.91 1171.58C2793.9 1170.44 2797.33 1169.3 2801.32 1167.59V1181.28C2797.9 1182.99 2793.9 1184.13 2789.91 1185.27C2785.91 1185.84 2781.35 1186.42 2776.21 1186.42C2768.8 1186.42 2762.52 1185.27 2757.38 1182.42C2751.68 1179.57 2747.68 1175.57 2744.26 1169.87C2741.41 1164.16 2739.7 1157.31 2739.7 1148.76C2739.7 1140.2 2740.84 1133.35 2743.69 1127.64C2746.54 1121.94 2750.54 1117.37 2755.67 1114.52C2760.24 1111.1 2766.51 1109.95 2773.36 1109.95ZM2773.36 1122.51C2768.8 1122.51 2765.37 1124.22 2762.52 1127.07C2759.67 1129.93 2757.95 1134.49 2757.38 1140.2H2788.77C2788.77 1136.77 2788.2 1133.92 2787.06 1131.07C2785.91 1128.21 2784.2 1126.5 2781.92 1124.79C2779.64 1123.08 2776.78 1122.51 2773.36 1122.51Z" fill="#005EA1"/>
<path d="M1417.61 1255.46C1413.04 1255.46 1409.05 1256.03 1405.62 1257.74C1402.2 1259.45 1399.35 1261.73 1397.07 1264.59C1394.78 1267.44 1393.07 1271.43 1391.93 1275.43C1390.79 1279.99 1390.22 1284.56 1390.22 1290.26C1390.22 1297.68 1391.36 1303.96 1393.07 1309.09C1394.78 1314.23 1398.21 1318.22 1402.2 1321.08C1406.2 1323.93 1411.33 1325.07 1417.61 1325.07C1421.6 1325.07 1425.6 1324.5 1429.59 1323.93C1433.58 1322.79 1437.58 1321.65 1441.57 1320.51V1335.34C1437.58 1337.05 1433.58 1338.2 1429.59 1338.77C1425.6 1339.34 1421.03 1339.91 1415.9 1339.91C1406.2 1339.91 1397.64 1337.63 1391.36 1333.63C1385.08 1329.64 1379.95 1323.93 1377.09 1316.51C1373.67 1309.09 1372.53 1300.54 1372.53 1290.26C1372.53 1282.85 1373.67 1276 1375.38 1270.29C1377.66 1264.02 1380.52 1258.88 1383.94 1254.32C1387.94 1249.75 1392.5 1246.33 1398.21 1244.05C1403.91 1241.76 1410.19 1240.62 1417.61 1240.62C1422.74 1240.62 1427.31 1241.19 1431.87 1242.33C1436.44 1243.48 1441 1245.19 1445 1246.9L1439.29 1261.16C1435.87 1259.45 1432.44 1258.31 1428.45 1257.17C1425.03 1256.03 1421.6 1255.46 1417.61 1255.46Z" fill="#005EA1"/>
<path d="M1523.17 1302.25C1523.17 1308.52 1522.6 1313.66 1520.88 1318.22C1519.17 1322.79 1516.89 1326.78 1514.04 1330.21C1511.18 1333.63 1507.19 1335.91 1503.2 1337.62C1498.63 1339.34 1494.07 1339.91 1488.36 1339.91C1483.22 1339.91 1478.66 1339.34 1474.67 1337.62C1470.67 1335.91 1466.68 1333.63 1463.82 1330.21C1460.97 1326.78 1458.12 1322.79 1456.41 1318.22C1454.69 1313.66 1453.55 1307.95 1453.55 1302.25C1453.55 1294.26 1454.69 1287.41 1457.55 1281.7C1460.4 1276 1464.39 1272 1469.53 1268.58C1474.67 1265.73 1480.94 1264.02 1488.36 1264.02C1495.21 1264.02 1501.48 1265.73 1506.62 1268.58C1511.75 1271.43 1515.75 1276 1518.6 1281.7C1521.45 1286.84 1523.17 1293.69 1523.17 1302.25ZM1470.67 1302.25C1470.67 1307.38 1471.24 1311.95 1472.38 1315.37C1473.52 1318.79 1475.24 1321.65 1478.09 1323.93C1480.94 1325.64 1483.79 1326.78 1487.79 1326.78C1491.78 1326.78 1495.21 1325.64 1498.06 1323.93C1500.91 1322.22 1502.62 1319.36 1503.77 1315.37C1504.91 1311.95 1505.48 1307.38 1505.48 1302.25C1505.48 1297.11 1504.91 1292.55 1503.77 1289.12C1502.62 1285.7 1500.91 1282.85 1498.06 1281.13C1495.21 1279.42 1492.35 1278.28 1488.36 1278.28C1482.08 1278.28 1477.52 1280.56 1475.24 1284.56C1471.81 1288.55 1470.67 1294.26 1470.67 1302.25Z" fill="#005EA1"/>
<path d="M1620.74 1264.02C1629.3 1264.02 1635.57 1266.3 1639.57 1270.29C1643.56 1274.29 1645.84 1281.13 1645.84 1290.83V1338.77H1628.73V1294.26C1628.73 1289.12 1627.58 1284.56 1625.87 1282.27C1624.16 1279.42 1620.74 1278.28 1616.17 1278.28C1610.47 1278.28 1605.9 1279.99 1603.62 1283.99C1601.34 1287.98 1599.62 1293.69 1599.62 1301.11V1339.34H1582.51V1294.26C1582.51 1290.83 1581.94 1287.41 1581.36 1285.13C1580.22 1282.85 1579.08 1281.13 1577.37 1279.42C1575.66 1278.28 1573.38 1277.71 1570.52 1277.71C1566.53 1277.71 1563.11 1278.85 1560.82 1280.56C1558.54 1282.28 1556.83 1285.13 1555.69 1289.12C1554.55 1292.55 1553.98 1297.11 1553.98 1302.82V1338.77H1536.86V1265.73H1549.98L1552.26 1275.43H1553.4C1555.12 1273.15 1556.83 1270.86 1559.11 1269.15C1561.39 1267.44 1563.68 1266.3 1566.53 1265.73C1569.38 1265.16 1572.24 1264.59 1575.09 1264.59C1580.79 1264.59 1585.36 1265.73 1588.78 1267.44C1592.78 1269.15 1595.63 1272 1597.34 1276H1598.48C1600.77 1272 1604.19 1269.15 1608.18 1267.44C1611.61 1265.16 1616.17 1264.02 1620.74 1264.02Z" fill="#005EA1"/>
<path d="M1701.19 1264.02C1709.75 1264.02 1716.6 1267.44 1721.74 1273.72C1726.87 1279.99 1729.72 1289.69 1729.72 1302.25C1729.72 1310.81 1728.58 1317.65 1726.3 1323.36C1724.02 1329.06 1720.59 1333.06 1716.03 1336.48C1711.46 1339.34 1706.9 1341.05 1700.62 1341.05C1697.2 1341.05 1693.78 1340.48 1691.49 1339.91C1688.64 1338.77 1686.36 1337.62 1684.65 1336.48C1682.93 1334.77 1681.22 1333.63 1679.51 1331.92H1678.37C1678.94 1333.63 1678.94 1335.34 1678.94 1337.62C1678.94 1339.91 1678.94 1341.62 1678.94 1343.33V1373H1661.82V1265.73H1675.52L1677.8 1275.43H1678.37C1679.51 1273.15 1681.22 1271.43 1683.51 1269.72C1685.22 1268.01 1688.07 1266.87 1690.35 1265.73C1694.35 1264.59 1697.77 1264.02 1701.19 1264.02ZM1696.63 1277.71C1692.64 1277.71 1689.21 1278.28 1686.93 1279.99C1684.65 1281.7 1682.93 1283.99 1681.79 1287.41C1680.65 1290.83 1680.08 1294.83 1680.08 1299.39V1301.68C1680.08 1306.81 1680.65 1311.38 1681.79 1314.8C1682.93 1318.22 1684.65 1321.08 1686.93 1322.79C1689.21 1324.5 1692.64 1325.64 1697.2 1325.64C1700.62 1325.64 1704.05 1324.5 1706.33 1322.79C1708.61 1321.08 1710.32 1318.22 1711.47 1314.23C1712.61 1310.81 1713.18 1306.24 1713.18 1301.11C1713.18 1293.69 1712.04 1287.41 1709.18 1283.42C1705.76 1279.99 1701.76 1277.71 1696.63 1277.71Z" fill="#005EA1"/>
<path d="M1808.47 1265.73V1339.34H1795.35L1793.06 1329.64H1792.49C1790.78 1331.92 1789.07 1334.2 1786.79 1335.91C1784.51 1337.63 1781.65 1338.77 1778.8 1339.34C1775.95 1339.91 1773.09 1340.48 1769.67 1340.48C1764.53 1340.48 1759.4 1339.34 1755.4 1337.63C1751.41 1335.91 1748.56 1333.06 1746.27 1329.07C1743.99 1325.07 1743.42 1319.94 1743.42 1313.66V1265.73H1760.54V1310.24C1760.54 1315.37 1761.68 1319.94 1763.96 1322.22C1766.25 1325.07 1769.67 1326.21 1774.23 1326.21C1778.8 1326.21 1782.22 1325.07 1785.08 1323.36C1787.93 1321.65 1789.64 1318.8 1790.78 1314.8C1791.92 1311.38 1792.49 1306.81 1792.49 1301.11V1265.73H1808.47Z" fill="#005EA1"/>
<path d="M1857.55 1326.78C1859.83 1326.78 1861.54 1326.78 1863.82 1326.21C1865.53 1325.64 1867.82 1325.07 1869.53 1325.07V1337.63C1867.82 1338.2 1865.53 1339.34 1862.68 1339.91C1859.83 1340.48 1856.98 1341.05 1853.55 1341.05C1849.56 1341.05 1845.56 1340.48 1842.14 1338.77C1838.72 1337.63 1835.86 1334.77 1834.15 1331.35C1831.87 1327.93 1831.3 1323.36 1831.3 1317.08V1278.85H1821.6V1271.44L1832.44 1265.73L1837.57 1250.32H1848.42V1266.3H1869.53V1279.42H1848.42V1317.65C1848.42 1321.08 1849.56 1323.36 1851.27 1325.07C1851.84 1325.64 1854.12 1326.78 1857.55 1326.78Z" fill="#005EA1"/>
<path d="M1912.32 1264.02C1922.02 1264.02 1928.87 1266.3 1934 1270.29C1939.14 1274.29 1941.42 1280.56 1941.42 1289.69V1338.77H1929.44L1926.01 1328.49H1925.44C1923.16 1331.35 1921.45 1333.06 1919.17 1335.34C1916.88 1337.05 1914.6 1338.19 1911.75 1339.34C1908.9 1339.91 1905.47 1340.48 1901.48 1340.48C1896.91 1340.48 1893.49 1339.91 1889.5 1338.19C1886.07 1336.48 1883.22 1334.2 1881.51 1330.78C1879.8 1327.35 1878.65 1323.36 1878.65 1318.22C1878.65 1310.81 1881.51 1305.1 1887.21 1301.11C1892.92 1297.11 1900.91 1295.4 1912.32 1294.83L1924.87 1294.26V1290.83C1924.87 1286.27 1923.73 1282.85 1921.45 1280.56C1919.17 1278.85 1916.31 1277.71 1911.75 1277.71C1908.33 1277.71 1904.33 1278.28 1900.91 1279.42C1897.48 1280.56 1894.06 1281.7 1890.64 1283.42L1885.5 1271.43C1888.93 1269.72 1893.49 1268.01 1898.05 1266.87C1902.62 1264.59 1907.18 1264.02 1912.32 1264.02ZM1915.74 1304.53C1908.33 1304.53 1903.19 1306.24 1900.34 1308.52C1897.48 1310.81 1895.77 1313.66 1895.77 1317.65C1895.77 1321.08 1896.91 1323.36 1898.63 1325.07C1900.91 1326.78 1903.19 1327.35 1906.61 1327.35C1911.75 1327.35 1915.74 1326.21 1919.17 1323.36C1922.59 1320.51 1924.3 1316.51 1924.3 1310.81V1304.53H1915.74Z" fill="#005EA1"/>
<path d="M1984.21 1340.48C1977.37 1340.48 1971.09 1339.34 1965.95 1336.48C1960.82 1333.63 1956.82 1329.64 1953.97 1323.93C1951.12 1318.22 1949.98 1311.38 1949.98 1302.82C1949.98 1293.69 1951.69 1286.27 1954.54 1280.56C1957.39 1274.86 1961.96 1270.86 1967.09 1268.01C1972.23 1265.16 1978.51 1264.02 1985.35 1264.02C1989.92 1264.02 1993.91 1264.59 1997.91 1265.16C2001.33 1266.3 2004.75 1266.87 2007.04 1268.58L2001.9 1281.7C1999.05 1280.56 1996.2 1279.42 1993.34 1278.85C1990.49 1278.28 1987.64 1277.71 1985.35 1277.71C1981.36 1277.71 1977.94 1278.85 1975.08 1280.56C1972.23 1282.28 1970.52 1285.13 1969.38 1288.55C1968.24 1291.98 1967.67 1296.54 1967.67 1302.25C1967.67 1307.38 1968.24 1311.95 1969.38 1315.37C1970.52 1318.79 1972.8 1321.65 1975.08 1323.36C1977.94 1325.07 1980.79 1326.21 1984.78 1326.21C1988.78 1326.21 1992.77 1325.64 1995.63 1324.5C1999.05 1323.36 2001.9 1322.22 2004.75 1320.51V1335.34C2001.9 1337.05 1999.05 1338.19 1995.63 1339.34C1993.34 1339.91 1989.35 1340.48 1984.21 1340.48ZM1997.91 1356.45C1997.91 1361.02 1996.2 1365.01 1993.34 1367.87C1990.49 1370.72 1984.78 1371.86 1977.37 1371.86C1975.65 1371.86 1973.94 1371.86 1972.8 1371.29C1971.09 1371.29 1969.95 1370.72 1968.81 1370.72V1361.02C1969.95 1361.02 1971.09 1361.59 1972.8 1361.59C1974.51 1361.59 1976.22 1362.16 1977.37 1362.16C1979.08 1362.16 1980.79 1361.59 1981.93 1361.02C1983.07 1360.45 1983.64 1359.31 1983.64 1357.02C1983.64 1355.31 1982.5 1353.6 1980.79 1352.46C1979.08 1351.32 1976.22 1350.18 1972.23 1349.61L1977.37 1338.77H1988.21L1985.92 1343.9C1987.64 1344.47 1989.92 1345.04 1991.63 1346.18C1993.34 1347.32 1994.48 1348.47 1995.63 1350.18C1997.34 1351.89 1997.91 1354.17 1997.91 1356.45Z" fill="#005EA1"/>
<path d="M2049.84 1264.02C2059.54 1264.02 2066.38 1266.3 2071.52 1270.29C2076.65 1274.29 2078.94 1280.56 2078.94 1289.69V1338.77H2066.95L2063.53 1328.49H2062.96C2060.68 1331.35 2058.97 1333.06 2056.68 1335.34C2054.4 1337.05 2052.12 1338.2 2049.26 1339.34C2046.41 1339.91 2042.99 1340.48 2038.99 1340.48C2034.43 1340.48 2031.01 1339.91 2027.01 1338.2C2023.59 1336.48 2020.73 1334.2 2019.02 1330.78C2017.31 1327.35 2016.17 1323.36 2016.17 1318.22C2016.17 1310.81 2019.02 1305.1 2024.73 1301.11C2030.44 1297.11 2038.42 1295.4 2049.84 1294.83L2062.39 1294.26V1290.83C2062.39 1286.27 2061.25 1282.85 2058.97 1280.56C2056.68 1278.85 2053.83 1277.71 2049.26 1277.71C2045.84 1277.71 2041.85 1278.28 2038.42 1279.42C2035 1280.56 2031.58 1281.71 2028.15 1283.42L2023.02 1271.43C2026.44 1269.72 2031.01 1268.01 2035.57 1266.87C2039.56 1264.59 2044.7 1264.02 2049.84 1264.02ZM2023.02 1257.17C2023.02 1253.75 2024.16 1250.89 2024.73 1248.61C2025.87 1246.33 2027.01 1244.05 2028.15 1242.33C2029.86 1240.62 2031.58 1239.48 2033.29 1238.91C2035 1238.34 2037.28 1237.77 2039.56 1237.77C2041.28 1237.77 2043.56 1238.34 2045.27 1238.91C2046.98 1239.48 2048.69 1240.62 2050.41 1241.76C2052.12 1242.9 2053.83 1243.47 2055.54 1244.62C2057.25 1245.19 2058.97 1245.76 2060.11 1245.76C2061.82 1245.76 2062.96 1245.19 2064.1 1244.05C2065.24 1242.9 2066.38 1241.19 2066.95 1238.34H2075.51C2074.94 1244.62 2073.23 1249.75 2069.81 1252.6C2066.95 1256.03 2062.96 1257.74 2058.39 1257.74C2056.68 1257.74 2054.97 1257.17 2053.26 1256.6C2051.55 1256.03 2049.84 1254.89 2048.12 1253.75C2046.41 1252.6 2044.7 1252.03 2042.99 1250.89C2041.28 1250.32 2039.56 1249.75 2038.42 1249.75C2037.28 1249.75 2035.57 1250.32 2034.43 1251.46C2033.29 1252.6 2032.15 1254.32 2031.58 1257.17H2023.02ZM2052.69 1304.53C2045.27 1304.53 2040.14 1306.24 2037.28 1308.52C2034.43 1310.81 2032.72 1313.66 2032.72 1317.65C2032.72 1321.08 2033.86 1323.36 2035.57 1325.07C2037.85 1326.78 2040.14 1327.35 2043.56 1327.35C2048.69 1327.35 2052.69 1326.21 2056.11 1323.36C2059.54 1320.51 2061.25 1316.51 2061.25 1310.81V1304.53H2052.69Z" fill="#005EA1"/>
<path d="M2159.39 1302.25C2159.39 1308.52 2158.82 1313.66 2157.11 1318.22C2155.4 1322.79 2153.11 1326.78 2150.26 1330.21C2147.41 1333.63 2143.41 1335.91 2139.42 1337.62C2134.86 1339.34 2130.29 1339.91 2124.58 1339.91C2119.45 1339.91 2114.88 1339.34 2110.89 1337.62C2106.9 1335.91 2102.9 1333.63 2100.05 1330.21C2097.2 1326.78 2094.34 1322.79 2092.63 1318.22C2090.92 1313.66 2089.78 1307.95 2089.78 1302.25C2089.78 1294.26 2090.92 1287.41 2093.77 1281.7C2096.62 1276 2100.62 1272 2105.75 1268.58C2110.89 1265.73 2117.17 1264.02 2124.58 1264.02C2131.43 1264.02 2137.71 1265.73 2142.84 1268.58C2147.98 1271.43 2151.97 1276 2154.83 1281.7C2157.68 1286.84 2159.39 1293.69 2159.39 1302.25ZM2106.9 1302.25C2106.9 1307.38 2107.47 1311.95 2108.61 1315.37C2109.75 1318.79 2111.46 1321.65 2114.31 1323.93C2117.17 1325.64 2120.02 1326.78 2124.01 1326.78C2128.01 1326.78 2131.43 1325.64 2134.28 1323.93C2137.14 1322.22 2138.85 1319.36 2139.99 1315.37C2141.13 1311.95 2141.7 1307.38 2141.7 1302.25C2141.7 1297.11 2141.13 1292.55 2139.99 1289.12C2138.85 1285.7 2137.14 1282.85 2134.28 1281.13C2131.43 1279.42 2128.58 1278.28 2124.58 1278.28C2118.31 1278.28 2113.74 1280.56 2111.46 1284.56C2108.04 1288.55 2106.9 1294.26 2106.9 1302.25Z" fill="#005EA1"/>
<path d="M2248.41 1255.46C2243.84 1255.46 2239.85 1256.03 2236.42 1257.74C2233 1259.45 2230.15 1261.73 2227.86 1264.59C2225.58 1267.44 2223.87 1271.43 2222.73 1275.43C2221.59 1279.99 2221.02 1284.56 2221.02 1290.26C2221.02 1297.68 2222.16 1303.96 2223.87 1309.09C2225.58 1314.23 2229.01 1318.22 2233 1321.08C2236.99 1323.93 2242.13 1325.07 2248.41 1325.07C2252.4 1325.07 2256.39 1324.5 2260.39 1323.93C2264.38 1322.79 2268.38 1321.65 2272.37 1320.51V1335.34C2268.38 1337.05 2264.38 1338.2 2260.39 1338.77C2256.39 1339.34 2251.83 1339.91 2246.69 1339.91C2236.99 1339.91 2228.43 1337.63 2222.16 1333.63C2215.88 1329.64 2210.75 1323.93 2207.89 1316.51C2204.47 1309.09 2203.33 1300.54 2203.33 1290.26C2203.33 1282.85 2204.47 1276 2206.18 1270.29C2208.46 1264.02 2211.32 1258.88 2214.74 1254.32C2218.73 1249.75 2223.3 1246.33 2229.01 1244.05C2234.71 1241.76 2240.99 1240.62 2248.41 1240.62C2253.54 1240.62 2258.11 1241.19 2262.67 1242.33C2267.24 1243.48 2271.8 1245.19 2275.8 1246.9L2270.09 1261.16C2266.67 1259.45 2263.24 1258.31 2259.25 1257.17C2255.82 1256.03 2251.83 1255.46 2248.41 1255.46Z" fill="#005EA1"/>
<path d="M2299.76 1237.2C2302.04 1237.2 2304.32 1237.77 2306.6 1238.91C2308.32 1240.05 2309.46 1242.33 2309.46 1245.76C2309.46 1249.18 2308.32 1251.46 2306.6 1252.61C2304.89 1253.75 2302.61 1254.89 2299.76 1254.89C2296.9 1254.89 2294.62 1254.32 2292.91 1252.61C2291.2 1251.46 2290.06 1248.61 2290.06 1245.76C2290.06 1242.33 2291.2 1240.05 2292.91 1238.91C2295.19 1237.77 2296.9 1237.2 2299.76 1237.2ZM2308.32 1265.73V1339.34H2291.2V1265.73H2308.32Z" fill="#005EA1"/>
<path d="M2358.53 1264.02C2365.38 1264.02 2370.52 1265.16 2375.65 1268.01C2380.22 1270.86 2384.21 1274.29 2386.49 1279.42C2389.35 1284.56 2390.49 1290.26 2390.49 1297.11V1305.67H2341.99C2341.99 1312.52 2344.27 1317.65 2347.69 1321.08C2351.12 1324.5 2356.25 1326.78 2362.53 1326.78C2367.09 1326.78 2371.66 1326.21 2375.08 1325.64C2379.08 1324.5 2382.5 1323.36 2386.49 1321.65V1335.34C2383.07 1337.05 2379.08 1338.19 2375.08 1339.34C2371.09 1339.91 2366.52 1340.48 2361.39 1340.48C2353.97 1340.48 2347.69 1339.34 2342.56 1336.48C2336.85 1333.63 2332.86 1329.64 2329.43 1323.93C2326.58 1318.22 2324.87 1311.38 2324.87 1302.82C2324.87 1294.26 2326.01 1287.41 2328.86 1281.7C2331.72 1276 2335.71 1271.43 2340.85 1268.58C2345.98 1265.73 2351.69 1264.02 2358.53 1264.02ZM2358.53 1276.57C2353.97 1276.57 2350.55 1278.28 2347.69 1281.13C2344.84 1283.99 2343.13 1288.55 2342.56 1294.26H2373.94C2373.94 1290.83 2373.37 1287.98 2372.23 1285.13C2371.09 1282.27 2369.38 1280.56 2367.09 1278.85C2364.81 1277.71 2361.96 1276.57 2358.53 1276.57Z" fill="#005EA1"/>
<path d="M2444.69 1264.02C2452.68 1264.02 2459.53 1266.3 2464.09 1270.29C2468.66 1274.29 2470.94 1281.13 2470.94 1290.83V1338.77H2453.82V1294.26C2453.82 1288.55 2452.68 1284.56 2450.4 1281.7C2448.12 1278.85 2444.69 1277.71 2440.13 1277.71C2433.28 1277.71 2428.72 1279.99 2425.86 1283.99C2423.58 1288.55 2421.87 1294.26 2421.87 1302.82V1338.77H2404.75V1265.73H2417.88L2420.16 1275.43H2421.3C2423.01 1273.15 2424.72 1270.86 2427.01 1269.15C2429.29 1267.44 2432.14 1266.3 2434.99 1265.73C2438.42 1264.59 2441.84 1264.02 2444.69 1264.02Z" fill="#005EA1"/>
<path d="M2519.45 1326.78C2521.73 1326.78 2523.44 1326.78 2525.72 1326.21C2527.43 1325.64 2529.72 1325.07 2531.43 1325.07V1337.63C2529.72 1338.2 2527.43 1339.34 2524.58 1339.91C2521.73 1340.48 2518.88 1341.05 2515.45 1341.05C2511.46 1341.05 2507.46 1340.48 2504.04 1338.77C2500.62 1337.63 2497.76 1334.77 2496.05 1331.35C2493.77 1327.93 2493.2 1323.36 2493.2 1317.08V1278.85H2483.5V1271.44L2494.34 1265.73L2499.48 1250.32H2510.32V1266.3H2531.43V1279.42H2509.75V1317.65C2509.75 1321.08 2510.89 1323.36 2512.6 1325.07C2514.31 1325.64 2516.59 1326.78 2519.45 1326.78Z" fill="#005EA1"/>
<path d="M2581.64 1236.63C2580.5 1237.77 2579.36 1239.48 2577.08 1241.19C2575.37 1242.9 2573.08 1244.62 2570.8 1246.9C2568.52 1248.61 2566.24 1250.89 2564.52 1252.6C2562.24 1254.32 2560.53 1256.03 2558.82 1257.17H2547.41V1255.46C2549.12 1253.75 2550.26 1251.46 2552.54 1249.18C2554.25 1246.9 2555.97 1244.62 2557.68 1241.76C2559.39 1239.48 2561.1 1237.2 2561.67 1234.92H2581.07V1236.63H2581.64ZM2565.1 1338.77H2547.98V1265.73H2565.1V1338.77Z" fill="#005EA1"/>
<path d="M2629 1278.28H2611.31V1338.77H2594.19V1278.28H2582.21V1270.29L2594.19 1265.16V1260.02C2594.19 1253.75 2595.33 1248.61 2597.05 1245.19C2598.76 1241.76 2602.18 1238.91 2605.61 1237.2C2609.6 1235.49 2613.59 1234.92 2618.73 1234.92C2622.15 1234.92 2625.58 1235.49 2628.43 1236.06C2631.28 1236.63 2633.57 1237.2 2635.85 1237.77L2631.28 1250.32C2629.57 1249.75 2627.86 1249.18 2626.15 1249.18C2624.44 1248.61 2622.15 1248.61 2619.87 1248.61C2616.45 1248.61 2614.16 1249.75 2612.45 1251.46C2610.74 1253.75 2610.17 1256.6 2610.17 1260.02V1264.59H2627.86V1278.28H2629Z" fill="#005EA1"/>
<path d="M2652.39 1237.2C2654.67 1237.2 2656.95 1237.77 2659.24 1238.91C2660.95 1240.05 2662.09 1242.33 2662.09 1245.76C2662.09 1249.18 2660.95 1251.46 2659.24 1252.61C2657.53 1253.75 2655.24 1254.89 2652.39 1254.89C2649.54 1254.89 2647.25 1254.32 2645.54 1252.61C2643.83 1251.46 2642.69 1248.61 2642.69 1245.76C2642.69 1242.33 2643.83 1240.05 2645.54 1238.91C2647.25 1237.77 2649.54 1237.2 2652.39 1237.2ZM2660.95 1265.73V1339.34H2643.83V1265.73H2660.95Z" fill="#005EA1"/>
<path d="M2707.18 1340.48C2700.33 1340.48 2694.05 1339.34 2688.92 1336.48C2683.78 1333.63 2679.79 1329.64 2676.94 1323.93C2674.08 1318.22 2672.94 1311.38 2672.94 1302.82C2672.94 1293.69 2674.65 1286.27 2677.51 1280.56C2680.36 1274.86 2684.92 1270.86 2690.06 1268.01C2695.2 1265.16 2701.47 1264.02 2708.32 1264.02C2712.88 1264.02 2716.88 1264.59 2720.87 1265.16C2724.3 1266.3 2727.72 1266.87 2730 1268.58L2724.87 1281.7C2722.01 1280.56 2719.16 1279.42 2716.31 1278.85C2713.45 1278.28 2710.6 1277.71 2708.32 1277.71C2704.32 1277.71 2700.9 1278.85 2698.05 1280.56C2695.2 1282.28 2693.48 1285.13 2692.34 1288.55C2691.2 1291.98 2690.63 1296.54 2690.63 1302.25C2690.63 1307.38 2691.2 1311.95 2692.34 1315.37C2693.48 1318.79 2695.77 1321.65 2698.05 1323.36C2700.9 1325.07 2703.75 1326.21 2707.75 1326.21C2711.74 1326.21 2715.74 1325.64 2718.59 1324.5C2722.01 1323.36 2724.87 1322.22 2727.72 1320.51V1335.34C2724.87 1337.05 2722.01 1338.19 2718.59 1339.34C2716.31 1339.91 2712.31 1340.48 2707.18 1340.48Z" fill="#005EA1"/>
<path d="M2772.79 1264.02C2782.49 1264.02 2789.34 1266.3 2794.47 1270.29C2799.61 1274.29 2801.89 1280.56 2801.89 1289.69V1338.77H2789.91L2786.49 1328.49H2785.91C2783.63 1331.35 2781.92 1333.06 2779.64 1335.34C2777.36 1337.05 2775.07 1338.19 2772.22 1339.34C2769.37 1339.91 2765.94 1340.48 2761.95 1340.48C2757.38 1340.48 2753.96 1339.91 2749.97 1338.19C2746.54 1336.48 2743.69 1334.2 2741.98 1330.78C2740.27 1327.35 2739.12 1323.36 2739.12 1318.22C2739.12 1310.81 2741.98 1305.1 2747.68 1301.11C2753.39 1297.11 2761.38 1295.4 2772.79 1294.83L2785.34 1294.26V1290.83C2785.34 1286.27 2784.2 1282.85 2781.92 1280.56C2779.64 1278.85 2776.78 1277.71 2772.22 1277.71C2768.8 1277.71 2764.8 1278.28 2761.38 1279.42C2757.95 1280.56 2754.53 1281.7 2751.11 1283.42L2745.97 1271.43C2749.4 1269.72 2753.96 1268.01 2758.53 1266.87C2763.09 1264.59 2767.66 1264.02 2772.79 1264.02ZM2776.21 1304.53C2768.8 1304.53 2763.66 1306.24 2760.81 1308.52C2757.95 1310.81 2756.24 1313.66 2756.24 1317.65C2756.24 1321.08 2757.38 1323.36 2759.1 1325.07C2761.38 1326.78 2763.66 1327.35 2767.08 1327.35C2772.22 1327.35 2776.21 1326.21 2779.64 1323.36C2783.06 1320.51 2784.77 1316.51 2784.77 1310.81V1304.53H2776.21Z" fill="#005EA1"/>
<path d="M1285.79 711.67H1061.55L1062.12 602.114V596.408C1062.12 593.554 1060.97 591.843 1059.83 590.701C1056.41 587.278 1047.85 587.278 1047.85 587.278H811.049H810.479C807.055 587.278 804.202 588.419 801.92 590.701L678.098 714.523C675.245 717.376 672.963 720.8 672.392 725.364V832.068L549.141 955.319C548 956.46 548 958.172 548 959.883L548.571 1201.82C548.571 1208.67 554.847 1214.94 562.265 1214.94H786.513V1325.64C786.513 1325.64 785.943 1334.77 790.508 1337.05C791.649 1337.62 793.931 1338.2 796.214 1338.2L1040.43 1338.77C1044.43 1338.77 1045 1337.05 1046.71 1335.34L1169.39 1212.09C1172.24 1209.24 1175.1 1206.96 1175.67 1200.68V1092.83L1296.06 971.866C1296.64 971.296 1297.21 970.725 1297.78 969.584V969.013C1298.92 966.731 1300.06 964.448 1300.06 961.595V724.223C1298.92 717.947 1293.21 711.67 1285.79 711.67ZM1253.84 975.86L1175.67 1054.03V975.86H1253.84ZM1129.45 1213.8L1051.27 1291.98V1214.37L1129.45 1213.8ZM593.648 947.901L672.963 868.587V947.901H593.648ZM787.084 1186.98H575.96V975.86H787.084V1186.98ZM719.752 711.099L797.925 632.926V711.099H719.752ZM1273.81 947.901H1062.69V736.777H1273.81V947.901ZM1148.28 975.86V1186.98H938.295V1092.26L1054.7 975.86H1148.28ZM911.476 739.059V831.497L795.072 947.901H700.352V737.918L911.476 739.059ZM833.874 1311.38L930.877 1213.8H1023.89V1311.38H833.874ZM910.335 870.869L910.905 1081.42V1194.97L813.332 1292.55V969.013L910.335 870.869ZM824.744 711.099V613.526H1016.47L918.894 711.099H824.744ZM938.295 1054.03V729.929L1035.87 632.356V957.03L938.295 1054.03Z" fill="#005EA1"/>
</svg>
